<svg width="40" height="37" viewBox="0 0 40 37" fill="none" xmlns="http://www.w3.org/2000/svg">
<g opacity="0.5" clip-path="url(#clip0_3_32)">
<path d="M12.2222 29.6111C10.3812 29.6111 8.95139 31.1035 8.95139 32.9444C8.95139 34.7854 10.3819 36.2778 12.2222 36.2778C14.0625 36.2778 15.4931 34.7854 15.4931 32.9444C15.4931 31.1035 14.0625 29.6111 12.2222 29.6111ZM39.5486 3.82847C39.125 3.26667 38.4792 2.94444 37.7153 2.94444H8.40972L8.30556 2.07708C8.15278 1.29104 7.46528 0.722221 6.66667 0.722221H1.60417C0.746528 0.722221 0 1.46875 0 2.32639C0 3.18403 0.746528 4.05555 1.60417 4.05555H5.225L9.41111 26.0347C9.625 26.8194 10.3125 27.3889 11.1111 27.3889H33.8889C34.809 27.3889 35.5556 26.6424 35.5556 25.7847C35.5556 24.7986 34.8125 24.0556 33.8889 24.0556H12.4931L11.8542 20.7222H33.9653C34.9576 20.7222 35.8292 20.0646 36.1021 19.1104L39.9118 5.83958C40.1042 5.10069 39.9722 4.39097 39.5486 3.82847ZM28.8889 11.8333C28.8889 12.6187 28.2461 13.2618 27.4604 13.2618H24.7618V15.9597C24.7639 16.7431 24.1181 17.3889 23.3333 17.3889C22.5486 17.3889 21.9049 16.746 21.9049 15.9604V13.2639H19.2083C18.4236 13.2639 17.7778 12.6181 17.7778 11.8333C17.7778 11.0486 18.4206 10.4049 19.2062 10.4049H21.9049V7.70833C21.9049 6.92292 22.5478 6.27986 23.3333 6.27986C24.1189 6.27986 24.7618 6.92264 24.7618 7.70833V10.4062H27.4604C28.2431 10.4028 28.8889 11.0486 28.8889 11.8333ZM32.1597 29.6111C30.3187 29.6111 28.8889 31.1035 28.8889 32.9444C28.8889 34.7854 30.3812 36.2778 32.1597 36.2778C33.9382 36.2778 35.4306 34.7854 35.4306 32.9444C35.4306 31.1035 34.0625 29.6111 32.1597 29.6111Z" fill="white"/>
</g>
<defs>
<clipPath id="clip0_3_32">
<rect width="40" height="35.5556" fill="white" transform="translate(0 0.722221)"/>
</clipPath>
</defs>
</svg>
