<svg width="40" height="37" viewBox="0 0 40 37" fill="none" xmlns="http://www.w3.org/2000/svg">
<g opacity="0.5" clip-path="url(#clip0_3_36)">
<path d="M35.5417 20.6945L35.5903 31.8125C35.5903 32.007 35.5764 32.1875 35.5556 32.375V33.5C35.5556 35.0347 34.3125 36.2778 32.7778 36.2778H31.6667C31.5903 36.2778 31.5139 36.2153 31.4375 36.2708C31.3403 36.2153 31.2431 36.2778 31.1458 36.2778H27.2222C25.6875 36.2778 24.4444 35.0347 24.4444 33.5V27.3889C24.4444 26.1597 23.4514 25.1667 22.2222 25.1667H17.7778C16.5486 25.1667 15.5556 26.1597 15.5556 27.3889V33.5C15.5556 35.0347 14.3125 36.2778 12.7778 36.2778H8.89583C8.79167 36.2778 8.6875 36.2708 8.58333 36.2639C8.5 36.2708 8.41667 36.2778 8.33333 36.2778H7.22222C5.68819 36.2778 4.44444 35.0347 4.44444 33.5V25.7222C4.44444 25.6597 4.44653 25.5903 4.45069 25.5278V20.6945H2.22569C0.973611 20.6945 0 19.7153 0 18.4653C0 17.8403 0.208611 17.2847 0.695139 16.7986L18.5 1.2789C18.9861 0.791812 19.5417 0.722229 20.0278 0.722229C20.5139 0.722229 21.0694 0.861396 21.4931 1.20931L28.8889 7.71528V5.16667C28.8889 3.93959 29.8819 2.94445 31.1111 2.94445H33.3333C34.5625 2.94445 35.5556 3.93959 35.5556 5.16667V13.5695L39.2222 16.7986C39.7778 17.2847 40.0625 17.8403 39.9861 18.4653C39.9861 19.7153 38.9444 20.6945 37.7639 20.6945H35.5417Z" fill="white"/>
</g>
<defs>
<clipPath id="clip0_3_36">
<rect width="40" height="35.5556" fill="white" transform="translate(0 0.722229)"/>
</clipPath>
</defs>
</svg>
