<svg width="40" height="33" viewBox="0 0 40 33" fill="none" xmlns="http://www.w3.org/2000/svg">
<g opacity="0.5" clip-path="url(#clip0_3_46)">
<path d="M17.1688 19.5H10.8313C4.85063 19.5 0 24.35 0 30.3312C0 31.5312 0.97 32.5 2.16625 32.5H25.8312C27.0312 32.5 28 31.5312 28 30.3312C28 24.35 23.15 19.5 17.1688 19.5ZM14 16.5C18.4188 16.5 22 12.9181 22 8.5C22 4.08187 18.4188 0.5 14 0.5C9.58125 0.5 6 4.08187 6 8.5C6 12.9181 9.58125 16.5 14 16.5ZM39.5187 8.9C38.9123 8.3375 37.9619 8.37169 37.3988 8.97913L31.9581 14.8385L29.5588 12.4391C28.9728 11.8532 28.0238 11.8532 27.4375 12.4391C26.8512 13.0251 26.8516 13.9741 27.4375 14.5604L30.9375 18.0604C31.2188 18.3438 31.6 18.5 32 18.5H32.0273C32.4355 18.4922 32.8223 18.3193 33.0998 18.0205L39.5998 11.0205C40.1625 10.4125 40.125 9.4625 39.5187 8.9Z" fill="white"/>
</g>
<defs>
<clipPath id="clip0_3_46">
<rect width="40" height="32" fill="white" transform="translate(0 0.5)"/>
</clipPath>
</defs>
</svg>
