<svg width="24" height="25" viewBox="0 0 24 25" fill="none" xmlns="http://www.w3.org/2000/svg">
<g clip-path="url(#clip0_17_208)">
<path d="M2.72722 3.22726C3.02846 3.22726 3.27267 2.98305 3.27267 2.68181C3.27267 2.38056 3.02846 2.13635 2.72722 2.13635C2.42597 2.13635 2.18176 2.38056 2.18176 2.68181C2.18176 2.98305 2.42597 3.22726 2.72722 3.22726Z" fill="#2E93DE"/>
<path d="M4.9091 3.22726C5.21035 3.22726 5.45456 2.98305 5.45456 2.68181C5.45456 2.38056 5.21035 2.13635 4.9091 2.13635C4.60786 2.13635 4.36365 2.38056 4.36365 2.68181C4.36365 2.98305 4.60786 3.22726 4.9091 3.22726Z" fill="#2E93DE"/>
<path d="M7.09086 3.22726C7.39211 3.22726 7.63632 2.98305 7.63632 2.68181C7.63632 2.38056 7.39211 2.13635 7.09086 2.13635C6.78962 2.13635 6.54541 2.38056 6.54541 2.68181C6.54541 2.98305 6.78962 3.22726 7.09086 3.22726Z" fill="#2E93DE"/>
<path d="M22.3636 0.5H1.63636C0.734182 0.5 0 1.23418 0 2.13636V19.5909C0 20.4931 0.734182 21.2273 1.63636 21.2273H5.37982C5.47418 21.4896 5.62091 21.7362 5.82873 21.9435C6.46036 22.5751 7.43564 22.6945 8.21018 22.2309C8.44964 22.0869 8.74527 22.0711 9 22.1905C9.19036 22.28 9.38564 22.3607 9.58473 22.4327C9.84764 22.5282 10.0451 22.7475 10.1155 23.0273C10.3315 23.8951 11.1065 24.5 12 24.5C12.8935 24.5 13.6685 23.8951 13.8867 23.0202C13.9549 22.748 14.1524 22.5293 14.4153 22.4338C14.6144 22.3618 14.8096 22.2805 14.9995 22.1916C15.2547 22.0727 15.5493 22.0875 15.798 22.2364C16.5638 22.6962 17.5396 22.5756 18.1713 21.9445C18.3791 21.7373 18.5253 21.4902 18.6202 21.2278H22.3636C23.2658 21.2278 24 20.4936 24 19.5915V2.13636C24 1.23418 23.2658 0.5 22.3636 0.5ZM17.3995 21.1722C17.1229 21.4493 16.6947 21.5016 16.3516 21.296C15.8002 20.9649 15.1216 20.93 14.5369 21.2038C14.376 21.2791 14.2113 21.3473 14.0433 21.4084C13.4389 21.6271 12.9845 22.1311 12.8264 22.7644C12.7315 23.144 12.3916 23.4091 12 23.4091C11.6084 23.4091 11.2685 23.144 11.1715 22.7551C11.0149 22.1305 10.5611 21.6271 9.95673 21.4078C9.78873 21.3467 9.624 21.2785 9.46255 21.2033C9.20182 21.0811 8.92309 21.0205 8.64382 21.0205C8.29691 21.0205 7.95055 21.1144 7.64018 21.3004C7.30364 21.5022 6.87655 21.4487 6.6 21.1722C6.32291 20.8956 6.27055 20.4675 6.47618 20.1244C6.80727 19.5724 6.84218 18.8944 6.56836 18.3096C6.49309 18.1487 6.42491 17.9845 6.36382 17.816C6.14509 17.2116 5.64109 16.7573 5.00782 16.5991C4.62873 16.5042 4.36364 16.1644 4.36364 15.7727C4.36364 15.3811 4.62873 15.0413 5.01764 14.9442C5.64218 14.7876 6.14564 14.3338 6.36491 13.7289C6.42545 13.5604 6.49418 13.3962 6.56945 13.2353C6.84273 12.6511 6.80836 11.9731 6.47236 11.4129C6.27055 11.0775 6.32345 10.6498 6.60055 10.3727C6.87709 10.0956 7.30527 10.0427 7.64836 10.2489C8.20036 10.58 8.87891 10.6155 9.46309 10.3411C9.624 10.2658 9.78873 10.1976 9.95673 10.1365C10.5611 9.91782 11.0155 9.41382 11.1736 8.78055C11.2685 8.40145 11.6084 8.13636 12 8.13636C12.3916 8.13636 12.7315 8.40145 12.8285 8.79036C12.9851 9.41491 13.4389 9.91836 14.0433 10.1376C14.2113 10.1987 14.376 10.2669 14.5375 10.3422C15.1211 10.6155 15.8002 10.5811 16.3598 10.2451C16.6958 10.0438 17.1229 10.0962 17.4 10.3733C17.6771 10.6498 17.7295 11.078 17.5238 11.4211C17.1922 11.9731 17.1578 12.6516 17.4316 13.2358C17.5069 13.3967 17.5751 13.5609 17.6362 13.7295C17.8549 14.3338 18.3589 14.7882 18.9922 14.9464C19.3713 15.0413 19.6364 15.3811 19.6364 15.7727C19.6364 16.1644 19.3713 16.5042 18.9824 16.6013C18.3578 16.7578 17.8544 17.2116 17.6351 17.8165C17.5745 17.9851 17.5058 18.1493 17.4305 18.3102C17.1573 18.8944 17.1916 19.5729 17.5276 20.1325C17.7295 20.4675 17.6765 20.8956 17.3995 21.1722ZM22.9091 19.5909C22.9091 19.8915 22.6642 20.1364 22.3636 20.1364H18.6878C18.6425 19.9389 18.5684 19.7447 18.4587 19.5625C18.3142 19.3225 18.2995 19.0275 18.4184 18.7727C18.5078 18.5824 18.5885 18.3871 18.6605 18.188C18.756 17.9251 18.9753 17.7276 19.2551 17.6573C20.1224 17.4413 20.7273 16.6662 20.7273 15.7727C20.7273 14.8793 20.1224 14.1042 19.2475 13.886C18.9753 13.8178 18.7565 13.6204 18.6611 13.3575C18.5885 13.1584 18.5078 12.9631 18.4189 12.7733C18.2995 12.5185 18.3147 12.2229 18.4636 11.9747C18.9235 11.2089 18.8035 10.2331 18.1713 9.60146C17.5396 8.96982 16.5644 8.84982 15.7898 9.314C15.5498 9.458 15.2547 9.47327 15 9.35436C14.8096 9.26491 14.6144 9.18418 14.4153 9.11218C14.1524 9.01673 13.9549 8.79745 13.8845 8.51764C13.6685 7.65036 12.8935 7.04545 12 7.04545C11.1065 7.04545 10.3315 7.65036 10.1133 8.52527C10.0451 8.79745 9.84764 9.01618 9.58473 9.11164C9.38564 9.18364 9.19036 9.26491 9.00055 9.35382C8.74582 9.47273 8.45073 9.458 8.202 9.30909C7.43673 8.84982 6.46091 8.96927 5.82873 9.60091C5.19655 10.2325 5.07709 11.2084 5.54127 11.9824C5.68582 12.2224 5.70055 12.5175 5.58164 12.7722C5.49218 12.9625 5.41145 13.1578 5.33945 13.3569C5.244 13.6198 5.02473 13.8173 4.74491 13.8876C3.87764 14.1042 3.27273 14.8793 3.27273 15.7727C3.27273 16.6662 3.87764 17.4413 4.75255 17.6595C5.02473 17.7276 5.24345 17.9251 5.33891 18.188C5.41145 18.3871 5.49218 18.5824 5.58109 18.7722C5.70055 19.0269 5.68527 19.3225 5.53636 19.5707C5.42945 19.7502 5.35636 19.9411 5.31164 20.1364H1.63636C1.33582 20.1364 1.09091 19.8915 1.09091 19.5909V4.86364H22.9091V19.5909ZM22.9091 3.77273H1.09091V2.13636C1.09091 1.83582 1.33582 1.59091 1.63636 1.59091H22.3636C22.6642 1.59091 22.9091 1.83582 22.9091 2.13636V3.77273Z" fill="#2E93DE"/>
<path d="M12 11.4091C9.59399 11.4091 7.63635 13.3667 7.63635 15.7727C7.63635 18.1787 9.59399 20.1364 12 20.1364C14.406 20.1364 16.3636 18.1787 16.3636 15.7727C16.3636 13.3667 14.406 11.4091 12 11.4091ZM12 19.0455C10.1951 19.0455 8.72726 17.5776 8.72726 15.7727C8.72726 13.9678 10.1951 12.5 12 12.5C13.8049 12.5 15.2727 13.9678 15.2727 15.7727C15.2727 17.5776 13.8049 19.0455 12 19.0455Z" fill="#2E93DE"/>
<path d="M12 16.8636C12.6025 16.8636 13.0909 16.3752 13.0909 15.7727C13.0909 15.1702 12.6025 14.6818 12 14.6818C11.3975 14.6818 10.9091 15.1702 10.9091 15.7727C10.9091 16.3752 11.3975 16.8636 12 16.8636Z" fill="#2E93DE"/>
</g>
<defs>
<clipPath id="clip0_17_208">
<rect width="24" height="24" fill="white" transform="translate(0 0.5)"/>
</clipPath>
</defs>
</svg>
