<svg width="24" height="25" viewBox="0 0 24 25" fill="none" xmlns="http://www.w3.org/2000/svg">
<g clip-path="url(#clip0_17_196)">
<path d="M12.2743 13.0455H11.725C11.1583 13.0455 10.5861 13.0864 10.0232 13.1666L7.94996 13.4627C7.14923 13.5773 6.54541 14.2733 6.54541 15.0827V18.194C6.54541 18.9462 7.05541 19.5991 7.78468 19.7818L10.7929 20.5335C11.1878 20.6322 11.5936 20.6818 12 20.6818C12.4063 20.6818 12.8127 20.6316 13.2065 20.5335L16.2152 19.7818C16.9445 19.5991 17.4545 18.9462 17.4545 18.194V15.0827C17.4545 14.2738 16.8507 13.5773 16.0494 13.4633L13.9756 13.1671C13.4138 13.0864 12.841 13.0455 12.2743 13.0455ZM16.3636 15.0827V18.194C16.3636 18.4449 16.1934 18.6626 15.9501 18.7231L12.9414 19.4747C12.3261 19.6286 11.6738 19.6286 11.0574 19.4747L8.04923 18.7231C7.8065 18.6626 7.63632 18.4449 7.63632 18.194V15.0827C7.63632 14.8133 7.83759 14.5815 8.10487 14.5427L10.1781 14.2466C10.6892 14.1735 11.2101 14.1364 11.7256 14.1364H12.2749C12.7903 14.1364 13.3107 14.1735 13.8218 14.246L15.8956 14.5422C16.1623 14.5809 16.3636 14.8133 16.3636 15.0827ZM1.99141 9.74492C2.04814 9.76401 2.1065 9.77328 2.16323 9.77328C2.39178 9.77328 2.60505 9.62819 2.68087 9.39965C3.95941 5.55528 7.44432 2.92456 11.4545 2.70365V3.22728C11.4545 3.44765 11.5876 3.64674 11.791 3.73128C11.8587 3.75965 11.9296 3.77328 12 3.77328C12.1418 3.77328 12.2814 3.71765 12.3856 3.61347L13.4765 2.52256C13.6898 2.30928 13.6898 1.96456 13.4765 1.75128L12.3856 0.660375C12.229 0.50383 11.995 0.456921 11.791 0.542012C11.5876 0.626557 11.4545 0.825103 11.4545 1.04601V1.61328C6.97359 1.83528 3.07305 4.76492 1.64614 9.05547C1.55123 9.34128 1.70559 9.65001 1.99141 9.74492Z" fill="#2E93DE"/>
<path d="M8.90071 21.8196C5.0558 20.5411 2.42453 17.0562 2.20362 13.0455H2.72725C2.94762 13.0455 3.14671 12.9124 3.23125 12.7089C3.3158 12.5049 3.26889 12.2704 3.11289 12.1144L2.02198 11.0235C1.80871 10.8102 1.46398 10.8102 1.25071 11.0235L0.159799 12.1144C0.00379934 12.2704 -0.0431097 12.5049 0.0414357 12.7089C0.125981 12.9129 0.325072 13.0455 0.545436 13.0455H1.11271C1.33471 17.5269 4.26489 21.4275 8.55707 22.8544C8.6138 22.8735 8.67216 22.8827 8.72889 22.8827C8.95744 22.8827 9.17071 22.7376 9.24653 22.5091C9.34144 22.2233 9.18653 21.914 8.90071 21.8196ZM22.0369 15.1493C21.75 15.0566 21.4429 15.2153 21.3507 15.5016C20.0994 19.4044 16.6009 22.0744 12.5454 22.2964V21.7727C12.5454 21.5524 12.4123 21.3533 12.2089 21.2687C12.0043 21.1836 11.7703 21.2306 11.6143 21.3871L10.5234 22.478C10.3102 22.6913 10.3102 23.036 10.5234 23.2493L11.6143 24.3402C11.7185 24.4444 11.8582 24.5 12 24.5C12.0703 24.5 12.1413 24.4864 12.2089 24.4586C12.4123 24.374 12.5454 24.1749 12.5454 23.9546V23.3873C17.0771 23.1642 20.9923 20.1909 22.3898 15.8355C22.482 15.5486 22.3238 15.2415 22.0369 15.1493ZM23.9585 12.2916C23.874 12.0876 23.6749 11.9546 23.4545 11.9546H22.8873C22.6653 7.4731 19.7351 3.57255 15.4429 2.14564C15.1576 2.04964 14.8483 2.2051 14.7534 2.49092C14.6585 2.77673 14.8129 3.08546 15.0987 3.18037C18.9442 4.45892 21.5754 7.94437 21.7963 11.9546H21.2727C21.0523 11.9546 20.8533 12.0876 20.7687 12.2911C20.6842 12.4951 20.7311 12.7296 20.8871 12.8856L21.978 13.9766C22.0843 14.0835 22.224 14.1364 22.3636 14.1364C22.5033 14.1364 22.6429 14.0829 22.7493 13.9766L23.8402 12.8856C23.9962 12.7296 24.0431 12.4956 23.9585 12.2916ZM12 4.31819C9.99598 4.31819 8.35525 5.94092 8.18344 8.09273C8.1698 8.26837 8.24071 8.43964 8.37544 8.5531C8.47525 8.6371 8.60016 8.68128 8.72725 8.68128V9.22728C8.72725 11.0322 10.1951 12.5 12 12.5C13.8049 12.5 15.2727 11.0322 15.2727 9.22728V8.68182C15.3998 8.68182 15.5247 8.6371 15.6245 8.5531C15.7593 8.43964 15.8302 8.26837 15.8165 8.09273C15.6447 5.94092 14.004 4.31819 12 4.31819ZM14.1818 9.22728C14.1818 10.4306 13.2033 11.4091 12 11.4091C10.7967 11.4091 9.81816 10.4306 9.81816 9.22728V8.46637C11.2598 8.21764 12.7402 8.21764 14.1818 8.46637V9.22728ZM12 7.18237C11.1343 7.18237 10.2693 7.26364 9.4178 7.4251C9.79525 6.23601 10.8087 5.4091 12 5.4091C13.1913 5.4091 14.2047 6.23601 14.5822 7.4251C13.7307 7.26419 12.8656 7.18237 12 7.18237Z" fill="#2E93DE"/>
</g>
<defs>
<clipPath id="clip0_17_196">
<rect width="24" height="24" fill="white" transform="translate(0 0.5)"/>
</clipPath>
</defs>
</svg>
