<svg width="24" height="25" viewBox="0 0 24 25" fill="none" xmlns="http://www.w3.org/2000/svg">
<path d="M22.3636 1.59091H1.63636C0.734182 1.59091 0 2.32509 0 3.22728V18.5C0 19.4022 0.734182 20.1364 1.63636 20.1364H9.27273V21.7727C9.27273 22.0733 9.02782 22.3182 8.72727 22.3182H8.18182C7.88073 22.3182 7.63636 22.5625 7.63636 22.8636C7.63636 23.1647 7.88073 23.4091 8.18182 23.4091H8.72727H15.2727H15.8182C16.1193 23.4091 16.3636 23.1647 16.3636 22.8636C16.3636 22.5625 16.1193 22.3182 15.8182 22.3182H15.2727C14.9722 22.3182 14.7273 22.0733 14.7273 21.7727V20.1364H22.3636C23.2658 20.1364 24 19.4022 24 18.5V3.22728C24 2.32509 23.2658 1.59091 22.3636 1.59091ZM10.2704 22.3182C10.3304 22.1475 10.3636 21.9642 10.3636 21.7727V20.1364H13.6364V21.7727C13.6364 21.9642 13.6696 22.1475 13.7296 22.3182H10.2704ZM22.9091 18.5C22.9091 18.8005 22.6642 19.0455 22.3636 19.0455H14.1818H9.81818H1.63636C1.33582 19.0455 1.09091 18.8005 1.09091 18.5V15.7727H22.9091V18.5ZM22.9091 14.6818H1.09091V3.22728C1.09091 2.92673 1.33582 2.68182 1.63636 2.68182H22.3636C22.6642 2.68182 22.9091 2.92673 22.9091 3.22728V14.6818Z" fill="#2E93DE"/>
<path d="M12 17.9545C12.3013 17.9545 12.5455 17.7103 12.5455 17.4091C12.5455 17.1078 12.3013 16.8636 12 16.8636C11.6988 16.8636 11.4546 17.1078 11.4546 17.4091C11.4546 17.7103 11.6988 17.9545 12 17.9545Z" fill="#2E93DE"/>
<path d="M21.8182 4.86364H20.5762C20.3869 4.53909 20.0389 4.31818 19.6364 4.31818C19.0336 4.31818 18.5455 4.80637 18.5455 5.40909C18.5455 5.54873 18.5744 5.68127 18.6218 5.804L15.4336 9.78909C15.3807 9.78091 15.3278 9.77273 15.2727 9.77273C15.0655 9.77273 14.8735 9.83382 14.7082 9.93418L10.3609 7.56309C10.3456 6.974 9.86563 6.5 9.27272 6.5C8.67 6.5 8.18182 6.98818 8.18182 7.59091C8.18182 7.66618 8.18945 7.73982 8.20418 7.81073L4.70291 10.9225C4.59545 10.8876 4.48309 10.8636 4.36363 10.8636C3.76091 10.8636 3.27272 11.3518 3.27272 11.9545C3.27272 11.9775 3.27818 11.9993 3.27927 12.0216L2.42454 12.5916C2.17418 12.7585 2.10654 13.0973 2.27345 13.3482C2.37872 13.5058 2.55163 13.5909 2.72781 13.5909C2.83145 13.5909 2.93672 13.5615 3.03 13.4993L3.88418 12.9298C4.02927 13.0013 4.19072 13.0455 4.36363 13.0455C4.96636 13.0455 5.45454 12.5573 5.45454 11.9545C5.45454 11.8793 5.44691 11.8056 5.43218 11.7347L8.93345 8.62291C9.04091 8.65782 9.15327 8.68182 9.27272 8.68182C9.48 8.68182 9.672 8.62073 9.83727 8.52037L14.1845 10.8915C14.1998 11.4805 14.6798 11.9545 15.2727 11.9545C15.8755 11.9545 16.3636 11.4664 16.3636 10.8636C16.3636 10.724 16.3347 10.5915 16.2873 10.4687L19.4755 6.48364C19.5284 6.49182 19.5813 6.5 19.6364 6.5C20.0389 6.5 20.3869 6.27909 20.5762 5.95455H21.8182C22.1193 5.95455 22.3636 5.71018 22.3636 5.40909C22.3636 5.108 22.1193 4.86364 21.8182 4.86364Z" fill="#2E93DE"/>
</svg>
