<svg width="24" height="25" viewBox="0 0 24 25" fill="none" xmlns="http://www.w3.org/2000/svg">
<path d="M2.72722 3.77273C3.02846 3.77273 3.27267 3.52852 3.27267 3.22727C3.27267 2.92603 3.02846 2.68182 2.72722 2.68182C2.42597 2.68182 2.18176 2.92603 2.18176 3.22727C2.18176 3.52852 2.42597 3.77273 2.72722 3.77273Z" fill="#2E93DE"/>
<path d="M4.9091 3.77273C5.21035 3.77273 5.45456 3.52852 5.45456 3.22727C5.45456 2.92603 5.21035 2.68182 4.9091 2.68182C4.60786 2.68182 4.36365 2.92603 4.36365 3.22727C4.36365 3.52852 4.60786 3.77273 4.9091 3.77273Z" fill="#2E93DE"/>
<path d="M7.09086 3.77273C7.39211 3.77273 7.63632 3.52852 7.63632 3.22727C7.63632 2.92603 7.39211 2.68182 7.09086 2.68182C6.78962 2.68182 6.54541 2.92603 6.54541 3.22727C6.54541 3.52852 6.78962 3.77273 7.09086 3.77273Z" fill="#2E93DE"/>
<path d="M22.3636 1.04545H1.63636C0.734182 1.04545 0 1.77964 0 2.68182V20.1364C0 21.0385 0.734182 21.7727 1.63636 21.7727H16.1378L17.7742 23.4091C18.126 23.7609 18.5935 23.9545 19.0909 23.9545C19.5884 23.9545 20.0564 23.7609 20.4076 23.4091L20.7273 23.0895C21.0791 22.7376 21.2727 22.2702 21.2727 21.7727H22.3636C23.2658 21.7727 24 21.0385 24 20.1364V2.68182C24 1.77964 23.2658 1.04545 22.3636 1.04545ZM19.956 22.3182L19.6364 22.6378C19.3495 22.9247 18.8324 22.9247 18.5455 22.6378L14.9531 19.0455L16.3636 17.6349L19.956 21.2273C20.0995 21.3707 20.1818 21.5698 20.1818 21.7727C20.1818 21.9756 20.0995 22.1747 19.956 22.3182ZM22.9091 20.1364C22.9091 20.4369 22.6642 20.6818 22.3636 20.6818H20.9133C20.856 20.6033 20.7976 20.5258 20.7273 20.456L16.7493 16.478C16.536 16.2647 16.1913 16.2647 15.978 16.478L15.2727 17.1833L14.4262 16.3367C15.294 15.2955 15.8182 13.958 15.8182 12.5C15.8182 9.19182 13.1264 6.5 9.81818 6.5C6.51 6.5 3.81818 9.19182 3.81818 12.5C3.81818 15.8082 6.51 18.5 9.81818 18.5C11.2762 18.5 12.6136 17.9758 13.6549 17.108L14.5015 17.9545L13.7962 18.6598C13.5829 18.8731 13.5829 19.2178 13.7962 19.4311L15.0469 20.6818H1.63636C1.33582 20.6818 1.09091 20.4369 1.09091 20.1364V5.40909H22.9091V20.1364ZM9.81818 17.4091C7.11164 17.4091 4.90909 15.2065 4.90909 12.5C4.90909 9.79345 7.11164 7.59091 9.81818 7.59091C12.5247 7.59091 14.7273 9.79345 14.7273 12.5C14.7273 15.2065 12.5247 17.4091 9.81818 17.4091ZM22.9091 4.31818H1.09091V2.68182C1.09091 2.38127 1.33582 2.13636 1.63636 2.13636H22.3636C22.6642 2.13636 22.9091 2.38127 22.9091 2.68182V4.31818Z" fill="#2E93DE"/>
<path d="M9.81823 8.13636C7.41223 8.13636 5.45459 10.094 5.45459 12.5C5.45459 14.906 7.41223 16.8636 9.81823 16.8636C12.2242 16.8636 14.1819 14.906 14.1819 12.5C14.1819 10.094 12.2242 8.13636 9.81823 8.13636ZM9.81823 15.7727C8.01332 15.7727 6.5455 14.3049 6.5455 12.5C6.5455 10.6951 8.01332 9.22727 9.81823 9.22727C11.6231 9.22727 13.091 10.6951 13.091 12.5C13.091 14.3049 11.6231 15.7727 9.81823 15.7727Z" fill="#2E93DE"/>
</svg>
