<svg width="24" height="25" viewBox="0 0 24 25" fill="none" xmlns="http://www.w3.org/2000/svg">
<g clip-path="url(#clip0_17_180)">
<path d="M3.27267 21.7727C3.87516 21.7727 4.36358 21.2843 4.36358 20.6818C4.36358 20.0793 3.87516 19.5909 3.27267 19.5909C2.67018 19.5909 2.18176 20.0793 2.18176 20.6818C2.18176 21.2843 2.67018 21.7727 3.27267 21.7727Z" fill="#2E93DE"/>
<path d="M21.2727 8.68182H15.4838L16.4498 5.78436C16.7547 4.86964 16.9091 3.91782 16.9091 2.95455C16.9091 1.60127 15.8078 0.5 14.4545 0.5C13.1013 0.5 12 1.60127 12 2.98182C12 3.34618 11.8582 3.68818 11.6007 3.94618C10.1127 5.43418 8.93782 7.16927 8.10927 9.10345C7.93473 9.51036 7.536 9.77273 7.09364 9.77273H6.54545C6.54545 9.47164 6.30109 9.22727 6 9.22727H0.545455C0.244364 9.22727 0 9.47164 0 9.77273V23.9545C0 24.2556 0.244364 24.5 0.545455 24.5H6C6.30109 24.5 6.54545 24.2556 6.54545 23.9545V22.3231C7.65164 22.3356 8.75836 22.4595 9.83891 22.6995L11.1976 23.0016C12.4145 23.2722 13.6636 23.4091 14.9095 23.4091H18.6807C20.4611 23.4091 21.9895 22.1987 22.3975 20.4653L23.6471 15.1547C23.8811 14.1587 24 13.1349 24 12.1127V11.4091C24 9.90527 22.7765 8.68182 21.2727 8.68182ZM5.45455 23.4091H1.09091V10.3182H5.45455V23.4091ZM22.9091 12.1127C22.9091 13.0509 22.8 13.9902 22.5851 14.9049L21.3355 20.2155C21.0442 21.4536 19.9527 22.3182 18.6807 22.3182H14.9095C13.7427 22.3182 12.5733 22.19 11.4338 21.9369L10.0751 21.6347C8.91709 21.3778 7.73018 21.2447 6.54491 21.2322V10.8636H7.09309C7.97236 10.8636 8.76436 10.3411 9.11073 9.53327C9.88473 7.72727 10.9816 6.10673 12.3715 4.71745C12.8356 4.25382 13.0909 3.63745 13.0909 2.95455C13.0909 2.20291 13.7029 1.59091 14.4545 1.59091C15.2062 1.59091 15.8182 2.20291 15.8182 2.95455C15.8182 3.80055 15.6824 4.63618 15.4151 5.43909L14.2102 9.05436C14.1545 9.22073 14.1829 9.40345 14.2855 9.54582C14.3875 9.68873 14.5522 9.77273 14.7273 9.77273H21.2727C22.1749 9.77273 22.9091 10.5069 22.9091 11.4091V12.1127Z" fill="#2E93DE"/>
</g>
<defs>
<clipPath id="clip0_17_180">
<rect width="24" height="24" fill="white" transform="translate(0 0.5)"/>
</clipPath>
</defs>
</svg>
