<svg width="24" height="25" viewBox="0 0 24 25" fill="none" xmlns="http://www.w3.org/2000/svg">
<g clip-path="url(#clip0_17_188)">
<path d="M12 6.5H11.9226C11.8713 6.302 11.7928 6.116 11.6908 5.94418L11.7464 5.88854C11.9597 5.67527 11.9597 5.33054 11.7464 5.11727C11.5331 4.904 11.1884 4.904 10.9751 5.11727L10.9195 5.17291C10.7471 5.07091 10.5617 4.99236 10.3637 4.94109V4.86363C10.3637 4.56254 10.1193 4.31818 9.81822 4.31818C9.51712 4.31818 9.27276 4.56254 9.27276 4.86363V4.94109C9.07476 4.99236 8.88876 5.07091 8.71694 5.17291L8.66131 5.11727C8.44803 4.904 8.10331 4.904 7.89003 5.11727C7.67676 5.33054 7.67676 5.67527 7.89003 5.88854L7.94567 5.94418C7.84422 6.11654 7.76567 6.302 7.71385 6.5H7.6364C7.33531 6.5 7.09094 6.74436 7.09094 7.04545C7.09094 7.34654 7.33531 7.59091 7.6364 7.59091H7.71385C7.76512 7.78891 7.84367 7.97491 7.94567 8.14673L7.89003 8.20236C7.67676 8.41564 7.67676 8.76036 7.89003 8.97363C7.9964 9.08 8.13603 9.13345 8.27567 9.13345C8.41531 9.13345 8.55494 9.08 8.66131 8.97363L8.71694 8.918C8.88931 9.01945 9.07476 9.098 9.27276 9.14982V9.22727C9.27276 9.52836 9.51712 9.77273 9.81822 9.77273C10.1193 9.77273 10.3637 9.52836 10.3637 9.22727V9.14982C10.5617 9.09854 10.7477 9.02 10.9195 8.918L10.9751 8.97363C11.0815 9.08 11.2211 9.13345 11.3608 9.13345C11.5004 9.13345 11.64 9.08 11.7464 8.97363C11.9597 8.76036 11.9597 8.41564 11.7464 8.20236L11.6908 8.14673C11.7922 7.97436 11.8708 7.78891 11.9226 7.59091H12C12.3011 7.59091 12.5455 7.34654 12.5455 7.04545C12.5455 6.74436 12.3011 6.5 12 6.5ZM9.81822 8.13636C9.21658 8.13636 8.72731 7.64709 8.72731 7.04545C8.72731 6.44382 9.21658 5.95454 9.81822 5.95454C10.4199 5.95454 10.9091 6.44382 10.9091 7.04545C10.9091 7.64709 10.4199 8.13636 9.81822 8.13636ZM18.5455 7.59091H15.2728C14.9717 7.59091 14.7273 7.83527 14.7273 8.13636C14.7273 8.43745 14.9717 8.68182 15.2728 8.68182H18.5455C18.8466 8.68182 19.0909 8.43745 19.0909 8.13636C19.0909 7.83527 18.8466 7.59091 18.5455 7.59091ZM16.3637 5.95454C16.3637 5.65345 16.1193 5.40909 15.8182 5.40909H13.6364C13.3353 5.40909 13.0909 5.65345 13.0909 5.95454C13.0909 6.25563 13.3353 6.5 13.6364 6.5H15.8182C16.1193 6.5 16.3637 6.25563 16.3637 5.95454Z" fill="#2E93DE"/>
<path d="M22.3637 1.59091H3.81821C2.91603 1.59091 2.18185 2.32509 2.18185 3.22727V6.63254L1.00748 7.03073C0.637664 7.15673 0.337118 7.42509 0.161482 7.78618C-0.0277907 8.17509 -0.0517907 8.64091 0.0960275 9.06309L2.18185 15.0467V17.4091C2.18185 18.224 2.78239 18.8965 3.56348 19.0198L4.70457 22.2893C4.9413 22.9733 5.56312 23.4091 6.21112 23.4091C6.36657 23.4091 6.52366 23.384 6.67694 23.3311L19.2846 19.0455H22.3637C23.2658 19.0455 24 18.3113 24 17.4091V3.22727C24 2.32509 23.2658 1.59091 22.3637 1.59091ZM2.18185 11.7325L1.12585 8.70364C1.07348 8.55364 1.07948 8.39327 1.14221 8.26345C1.17603 8.19473 1.24094 8.10364 1.35875 8.06327L2.18185 7.78454V11.7325ZM6.32457 22.2985C6.10094 22.3776 5.83094 22.2075 5.73494 21.9309L4.72803 19.0455H15.8951L6.32457 22.2985ZM22.9091 16.3182V17.4091C22.9091 17.7096 22.6642 17.9545 22.3637 17.9545H3.96003H3.81821C3.51766 17.9545 3.27275 17.7096 3.27275 17.4091V13.7709C6.18548 12.5442 9.55421 12.8851 12.1457 14.6976C12.1473 14.6987 12.1538 14.7036 12.1555 14.7047C12.546 14.9655 12.9126 15.3025 13.2671 15.6287C13.3718 15.7253 13.5044 15.7727 13.6358 15.7727C13.7831 15.7727 13.9298 15.7138 14.0373 15.5965C14.2413 15.3745 14.2271 15.0298 14.0051 14.8258C13.8 14.6371 13.5764 14.4375 13.3413 14.2416C15.3709 12.6522 17.4535 11.9545 20.1818 11.9545C21.2449 11.9545 21.918 11.9955 22.9091 12.2245V16.3182ZM22.9091 11.1064C21.948 10.9029 21.2258 10.8636 20.1818 10.8636C17.076 10.8636 14.7306 11.6764 12.4206 13.5696C10.7455 12.4984 8.80966 11.9513 6.86348 11.9513C5.65094 11.9513 4.43403 12.1635 3.27275 12.5927V3.22727C3.27275 2.92673 3.51766 2.68182 3.81821 2.68182H22.3637C22.6642 2.68182 22.9091 2.92673 22.9091 3.22727V11.1064Z" fill="#2E93DE"/>
</g>
<defs>
<clipPath id="clip0_17_188">
<rect width="24" height="24" fill="white" transform="translate(0 0.5)"/>
</clipPath>
</defs>
</svg>
