<svg width="128" height="128" viewBox="0 0 128 128" fill="none" xmlns="http://www.w3.org/2000/svg">
<rect width="128" height="128" rx="64" fill="#04C3F8" fill-opacity="0.2"/>
<path d="M84 42C83.9983 40.4092 83.3657 38.884 82.2408 37.7592C81.116 36.6343 79.5908 36.0017 78 36H50C48.4092 36.0017 46.884 36.6343 45.7592 37.7592C44.6343 38.884 44.0017 40.4092 44 42V86C44.0017 87.5908 44.6343 89.116 45.7592 90.2408C46.884 91.3657 48.4092 91.9983 50 92H78C79.5908 91.9983 81.116 91.3657 82.2408 90.2408C83.3657 89.116 83.9983 87.5908 84 86V42ZM53 86C52.4067 86 51.8266 85.8241 51.3333 85.4944C50.8399 85.1648 50.4554 84.6962 50.2284 84.148C50.0013 83.5999 49.9419 82.9967 50.0576 82.4147C50.1734 81.8328 50.4591 81.2982 50.8787 80.8787C51.2982 80.4591 51.8328 80.1734 52.4147 80.0576C52.9967 79.9419 53.5999 80.0013 54.1481 80.2284C54.6962 80.4554 55.1648 80.8399 55.4944 81.3333C55.8241 81.8266 56 82.4067 56 83C56 83.7956 55.6839 84.5587 55.1213 85.1213C54.5587 85.6839 53.7956 86 53 86ZM53 76C52.4067 76 51.8266 75.8241 51.3333 75.4944C50.8399 75.1648 50.4554 74.6962 50.2284 74.148C50.0013 73.5999 49.9419 72.9967 50.0576 72.4147C50.1734 71.8328 50.4591 71.2982 50.8787 70.8787C51.2982 70.4591 51.8328 70.1734 52.4147 70.0576C52.9967 69.9419 53.5999 70.0013 54.1481 70.2284C54.6962 70.4554 55.1648 70.8399 55.4944 71.3333C55.8241 71.8266 56 72.4067 56 73C56 73.7956 55.6839 74.5587 55.1213 75.1213C54.5587 75.6839 53.7956 76 53 76ZM53 66C52.4067 66 51.8266 65.8241 51.3333 65.4944C50.8399 65.1648 50.4554 64.6962 50.2284 64.148C50.0013 63.5999 49.9419 62.9967 50.0576 62.4147C50.1734 61.8328 50.4591 61.2982 50.8787 60.8787C51.2982 60.4591 51.8328 60.1734 52.4147 60.0576C52.9967 59.9419 53.5999 60.0013 54.1481 60.2284C54.6962 60.4554 55.1648 60.8399 55.4944 61.3333C55.8241 61.8266 56 62.4067 56 63C56 63.7956 55.6839 64.5587 55.1213 65.1213C54.5587 65.6839 53.7956 66 53 66V66ZM64 86C63.4067 86 62.8266 85.8241 62.3333 85.4944C61.8399 85.1648 61.4554 84.6962 61.2284 84.148C61.0013 83.5999 60.9419 82.9967 61.0576 82.4147C61.1734 81.8328 61.4591 81.2982 61.8787 80.8787C62.2982 80.4591 62.8328 80.1734 63.4147 80.0576C63.9967 79.9419 64.5999 80.0013 65.148 80.2284C65.6962 80.4554 66.1648 80.8399 66.4944 81.3333C66.8241 81.8266 67 82.4067 67 83C67 83.7956 66.6839 84.5587 66.1213 85.1213C65.5587 85.6839 64.7956 86 64 86ZM64 76C63.4067 76 62.8266 75.8241 62.3333 75.4944C61.8399 75.1648 61.4554 74.6962 61.2284 74.148C61.0013 73.5999 60.9419 72.9967 61.0576 72.4147C61.1734 71.8328 61.4591 71.2982 61.8787 70.8787C62.2982 70.4591 62.8328 70.1734 63.4147 70.0576C63.9967 69.9419 64.5999 70.0013 65.148 70.2284C65.6962 70.4554 66.1648 70.8399 66.4944 71.3333C66.8241 71.8266 67 72.4067 67 73C67 73.7956 66.6839 74.5587 66.1213 75.1213C65.5587 75.6839 64.7956 76 64 76ZM64 66C63.4067 66 62.8266 65.8241 62.3333 65.4944C61.8399 65.1648 61.4554 64.6962 61.2284 64.148C61.0013 63.5999 60.9419 62.9967 61.0576 62.4147C61.1734 61.8328 61.4591 61.2982 61.8787 60.8787C62.2982 60.4591 62.8328 60.1734 63.4147 60.0576C63.9967 59.9419 64.5999 60.0013 65.148 60.2284C65.6962 60.4554 66.1648 60.8399 66.4944 61.3333C66.8241 61.8266 67 62.4067 67 63C67 63.7956 66.6839 64.5587 66.1213 65.1213C65.5587 65.6839 64.7956 66 64 66V66ZM78 83C78 83.7956 77.6839 84.5587 77.1213 85.1213C76.5587 85.6839 75.7956 86 75 86C74.2044 86 73.4413 85.6839 72.8787 85.1213C72.3161 84.5587 72 83.7956 72 83V73C72 72.2044 72.3161 71.4413 72.8787 70.8787C73.4413 70.3161 74.2044 70 75 70C75.7956 70 76.5587 70.3161 77.1213 70.8787C77.6839 71.4413 78 72.2044 78 73V83ZM75 66C74.4067 66 73.8266 65.8241 73.3333 65.4944C72.8399 65.1648 72.4554 64.6962 72.2284 64.148C72.0013 63.5999 71.9419 62.9967 72.0576 62.4147C72.1734 61.8328 72.4591 61.2982 72.8787 60.8787C73.2982 60.4591 73.8328 60.1734 74.4147 60.0576C74.9967 59.9419 75.5999 60.0013 76.148 60.2284C76.6962 60.4554 77.1648 60.8399 77.4944 61.3333C77.8241 61.8266 78 62.4067 78 63C78 63.7956 77.6839 64.5587 77.1213 65.1213C76.5587 65.6839 75.7956 66 75 66V66ZM77.4137 53.4137C77.0389 53.7889 76.5303 53.9998 76 54H52C51.4696 54 50.9609 53.7893 50.5858 53.4142C50.2107 53.0391 50 52.5304 50 52V44C50 43.4696 50.2107 42.9609 50.5858 42.5858C50.9609 42.2107 51.4696 42 52 42H76C76.5304 42 77.0391 42.2107 77.4142 42.5858C77.7893 42.9609 78 43.4696 78 44V52C77.9998 52.5303 77.7889 53.0389 77.4137 53.4137Z" fill="#04C3F8"/>
</svg>
