<svg width="128" height="128" viewBox="0 0 128 128" fill="none" xmlns="http://www.w3.org/2000/svg">
<rect width="128" height="128" rx="64" fill="#513EBF" fill-opacity="0.15"/>
<path d="M91.4026 57.815C90.1101 51.7338 86.6826 46.1987 81.7501 42.23C76.706 38.1941 70.4376 35.9968 63.9776 36C56.3626 36 49.2501 38.9337 43.9326 44.2612C38.7939 49.4162 35.9776 56.2225 36.0001 63.4212C36.0003 68.6991 37.5498 73.8608 40.4564 78.2663L41.0001 79.0225L38.0001 92L52.3501 88.43C52.3501 88.43 52.6376 88.5262 52.8501 88.6075C53.0626 88.6887 54.8914 89.39 56.8314 89.9325C58.4439 90.3825 61.7989 91.0575 64.4276 91.0575C71.8839 91.0575 78.8464 88.17 84.0314 82.925C89.1701 77.7212 92.0001 70.8025 92.0001 63.4363C92.0005 61.5466 91.8002 59.6623 91.4026 57.815V57.815ZM52.0001 68C51.209 68 50.4356 67.7654 49.7779 67.3259C49.1201 66.8864 48.6074 66.2616 48.3046 65.5307C48.0019 64.7998 47.9227 63.9956 48.077 63.2196C48.2313 62.4437 48.6123 61.731 49.1717 61.1716C49.7311 60.6122 50.4438 60.2312 51.2198 60.0769C51.9957 59.9225 52.8 60.0017 53.5309 60.3045C54.2618 60.6072 54.8865 61.1199 55.326 61.7777C55.7655 62.4355 56.0001 63.2089 56.0001 64C56.0001 65.0609 55.5787 66.0783 54.8286 66.8284C54.0784 67.5786 53.061 68 52.0001 68ZM64.0001 68C63.209 68 62.4356 67.7654 61.7779 67.3259C61.1201 66.8864 60.6074 66.2616 60.3046 65.5307C60.0019 64.7998 59.9227 63.9956 60.077 63.2196C60.2313 62.4437 60.6123 61.731 61.1717 61.1716C61.7311 60.6122 62.4438 60.2312 63.2198 60.0769C63.9957 59.9225 64.8 60.0017 65.5309 60.3045C66.2618 60.6072 66.8865 61.1199 67.326 61.7777C67.7655 62.4355 68.0001 63.2089 68.0001 64C68.0001 65.0609 67.5787 66.0783 66.8286 66.8284C66.0784 67.5786 65.061 68 64.0001 68V68ZM76.0001 68C75.209 68 74.4356 67.7654 73.7779 67.3259C73.1201 66.8864 72.6074 66.2616 72.3046 65.5307C72.0019 64.7998 71.9227 63.9956 72.077 63.2196C72.2313 62.4437 72.6123 61.731 73.1717 61.1716C73.7311 60.6122 74.4438 60.2312 75.2198 60.0769C75.9957 59.9225 76.8 60.0017 77.5309 60.3045C78.2618 60.6072 78.8865 61.1199 79.326 61.7777C79.7655 62.4355 80.0001 63.2089 80.0001 64C80.0001 65.0609 79.5787 66.0783 78.8286 66.8284C78.0784 67.5786 77.061 68 76.0001 68Z" fill="#513EBF"/>
</svg>
