<svg width="64" height="64" viewBox="0 0 64 64" fill="none" xmlns="http://www.w3.org/2000/svg">
<path d="M32 58C46.3588 58 58 46.3588 58 32C58 17.6413 46.3587 6 32 6.00001C17.6412 6.00001 6 17.6413 6 32C6 46.3588 17.6413 58 32 58ZM20.58 31.4188C20.765 31.2322 20.9849 31.084 21.2272 30.9825C21.4695 30.881 21.7294 30.8282 21.992 30.8272C22.2547 30.8261 22.515 30.8768 22.7581 30.9764C23.0012 31.076 23.2223 31.2225 23.4087 31.4075L30 37.9475L30 21.25C30 20.7196 30.2107 20.2109 30.5858 19.8358C30.9609 19.4607 31.4696 19.25 32 19.25C32.5304 19.25 33.0391 19.4607 33.4142 19.8358C33.7893 20.2109 34 20.7196 34 21.25L34 37.9475L40.5912 31.4075C40.7779 31.2225 40.9991 31.0761 41.2424 30.9766C41.4856 30.8771 41.746 30.8265 42.0088 30.8276C42.2716 30.8288 42.5316 30.8817 42.774 30.9833C43.0163 31.085 43.2362 31.2334 43.4212 31.42C43.6062 31.6066 43.7527 31.8279 43.8522 32.0711C43.9517 32.3144 44.0023 32.5748 44.0011 32.8376C43.9999 33.1004 43.947 33.3604 43.8454 33.6027C43.7438 33.8451 43.5954 34.065 43.4087 34.25L33.4088 44.1738C33.0341 44.5455 32.5278 44.7541 32 44.7541C31.4722 44.7541 30.9659 44.5455 30.5913 44.1738L20.5913 34.25C20.4044 34.065 20.2558 33.8449 20.1541 33.6024C20.0524 33.3599 19.9995 33.0997 19.9984 32.8367C19.9974 32.5737 20.0482 32.3131 20.148 32.0698C20.2478 31.8265 20.3946 31.6053 20.58 31.4188V31.4188Z" fill="#DB7783"/>
</svg>
