<svg width="128" height="128" viewBox="0 0 128 128" fill="none" xmlns="http://www.w3.org/2000/svg">
<rect width="128" height="128" rx="64" fill="#02AE9C" fill-opacity="0.15"/>
<path d="M88 82H40C39.4696 82 38.9609 81.7893 38.5858 81.4142C38.2107 81.0391 38 80.5304 38 80C38 79.4696 38.2107 78.9609 38.5858 78.5858C38.9609 78.2107 39.4696 78 40 78H88C88.5304 78 89.0391 78.2107 89.4142 78.5858C89.7893 78.9609 90 79.4696 90 80C90 80.5304 89.7893 81.0391 89.4142 81.4142C89.0391 81.7893 88.5304 82 88 82ZM84 88H44C43.4696 88 42.9609 87.7893 42.5858 87.4142C42.2107 87.0391 42 86.5304 42 86C42 85.4696 42.2107 84.9609 42.5858 84.5858C42.9609 84.2107 43.4696 84 44 84H84C84.5304 84 85.0391 84.2107 85.4142 84.5858C85.7893 84.9609 86 85.4696 86 86C86 86.5304 85.7893 87.0391 85.4142 87.4142C85.0391 87.7893 84.5304 88 84 88ZM36 66H34V72C34 73.0609 34.4214 74.0783 35.1716 74.8284C35.9217 75.5786 36.9391 76 38 76H44V74C43.9977 71.879 43.1541 69.8455 41.6543 68.3457C40.1545 66.8459 38.121 66.0023 36 66V66Z" fill="#02AE9C"/>
<path d="M92 62H94V54H92C88.8185 53.9964 85.7684 52.7309 83.5187 50.4813C81.2691 48.2316 80.0036 45.1815 80 42V40H48V42C47.9964 45.1815 46.7309 48.2316 44.4813 50.4813C42.2316 52.7309 39.1815 53.9964 36 54H34V62C34.625 62 35.2925 62 36 62C39.1815 62.0036 42.2316 63.2691 44.4813 65.5187C46.7309 67.7684 47.9964 70.8185 48 74V76H80V74C80.0036 70.8185 81.2691 67.7684 83.5187 65.5187C85.7684 63.2691 88.8185 62.0036 92 62V62ZM64 70C61.6266 70 59.3065 69.2962 57.3332 67.9776C55.3598 66.6591 53.8217 64.7849 52.9134 62.5922C52.0052 60.3995 51.7676 57.9867 52.2306 55.6589C52.6936 53.3311 53.8365 51.1929 55.5147 49.5147C57.1929 47.8365 59.3311 46.6936 61.6589 46.2306C63.9867 45.7676 66.3995 46.0052 68.5922 46.9134C70.7849 47.8217 72.6591 49.3598 73.9776 51.3332C75.2962 53.3065 76 55.6266 76 58C75.9964 61.1815 74.7309 64.2316 72.4813 66.4813C70.2316 68.7309 67.1815 69.9964 64 70V70Z" fill="#02AE9C"/>
<path d="M64 66C68.4183 66 72 62.4183 72 58C72 53.5817 68.4183 50 64 50C59.5817 50 56 53.5817 56 58C56 62.4183 59.5817 66 64 66Z" fill="#02AE9C"/>
<path d="M84 74V76H90C91.0609 76 92.0783 75.5786 92.8284 74.8284C93.5786 74.0783 94 73.0609 94 72V66H92C89.879 66.0023 87.8455 66.8459 86.3457 68.3457C84.8459 69.8455 84.0023 71.879 84 74ZM92 50H94V44C94 42.9391 93.5786 41.9217 92.8284 41.1716C92.0783 40.4214 91.0609 40 90 40H84V42C84.0023 44.121 84.8459 46.1545 86.3457 47.6543C87.8455 49.1541 89.879 49.9977 92 50V50ZM44 42V40H38C36.9391 40 35.9217 40.4214 35.1716 41.1716C34.4214 41.9217 34 42.9391 34 44V50H36C38.121 49.9977 40.1545 49.1541 41.6543 47.6543C43.1541 46.1545 43.9977 44.121 44 42V42Z" fill="#02AE9C"/>
</svg>
