<svg width="64" height="64" viewBox="0 0 64 64" fill="none" xmlns="http://www.w3.org/2000/svg">
<path d="M32 6C17.6412 6 6 17.6412 6 32C6 46.3588 17.6412 58 32 58C46.3588 58 58 46.3588 58 32C58 17.6412 46.3588 6 32 6ZM43.42 32.5812C43.235 32.7678 43.0151 32.916 42.7728 33.0175C42.5305 33.119 42.2706 33.1718 42.008 33.1728C41.7453 33.1739 41.485 33.1232 41.2419 33.0236C40.9988 32.924 40.7777 32.7775 40.5913 32.5925L34 26.0525V42.75C34 43.2804 33.7893 43.7891 33.4142 44.1642C33.0391 44.5393 32.5304 44.75 32 44.75C31.4696 44.75 30.9609 44.5393 30.5858 44.1642C30.2107 43.7891 30 43.2804 30 42.75V26.0525L23.4088 32.5925C23.2221 32.7775 23.0009 32.9239 22.7576 33.0234C22.5144 33.1229 22.254 33.1735 21.9912 33.1724C21.7284 33.1712 21.4684 33.1183 21.226 33.0167C20.9837 32.915 20.7638 32.7666 20.5788 32.58C20.3938 32.3934 20.2473 32.1721 20.1478 31.9289C20.0483 31.6856 19.9977 31.4252 19.9989 31.1624C20 30.8996 20.053 30.6396 20.1546 30.3973C20.2562 30.1549 20.4046 29.935 20.5912 29.75L30.5912 19.8263C30.9659 19.4545 31.4722 19.2459 32 19.2459C32.5278 19.2459 33.0341 19.4545 33.4087 19.8263L43.4087 29.75C43.5956 29.935 43.7442 30.1551 43.8459 30.3976C43.9476 30.6401 44.0005 30.9003 44.0016 31.1633C44.0026 31.4263 43.9518 31.6869 43.852 31.9302C43.7522 32.1735 43.6054 32.3947 43.42 32.5812V32.5812Z" fill="#70CAA3"/>
</svg>
