<svg width="28" height="32" viewBox="0 0 28 32" fill="none" xmlns="http://www.w3.org/2000/svg">
<g clip-path="url(#clip0_54_413)">
<path d="M26.9841 17.1404L17.1403 26.9842C16.7589 27.3718 16.2544 27.5625 15.7499 27.5625C15.2454 27.5625 14.7421 27.3702 14.3582 26.9857C13.5892 26.2167 13.5892 24.9708 14.3582 24.2018L20.844 17.7187H1.96865C0.881532 17.7187 0 16.8389 0 15.75C0 14.661 0.881532 13.7812 1.96865 13.7812H20.844L14.3595 7.29666C13.5904 6.52762 13.5904 5.28177 14.3595 4.51273C15.1285 3.74368 16.3744 3.74368 17.1434 4.51273L26.9872 14.3565C27.7531 15.1286 27.7531 16.3714 26.9841 17.1404Z" fill="#3B4B59"/>
</g>
<defs>
<clipPath id="clip0_54_413">
<rect width="27.5625" height="31.5" fill="white"/>
</clipPath>
</defs>
</svg>
