<svg width="36" height="48" viewBox="0 0 36 48" fill="none" xmlns="http://www.w3.org/2000/svg">
<path d="M18.0854 31.9945H35.9912L24.0322 21.3625L18.0854 31.9945Z" fill="#FF7FAC"/>
<path d="M17.9874 16.0056L11.9751 21.3462L17.9546 31.9946H18.0857L24.0324 21.3625L17.9874 16.0056Z" fill="#FF4C80"/>
<path d="M11.9754 21.3456L0 31.994H17.9549L11.9754 21.3456Z" fill="#FF745B"/>
<path d="M18.0206 32.1089L18.0861 31.9943H17.9551L18.0206 32.1089Z" fill="#FF9D51"/>
<path d="M17.9879 48L23.9182 42.7249L12.123 42.7741L17.9879 48Z" fill="#FF745B"/>
<path d="M12.0737 42.7413L12.1229 42.7741L23.9181 42.7249L23.9672 42.6922L18.0205 32.1092L12.0737 42.7413Z" fill="#FFB955"/>
<path d="M18.086 31.9943L18.0205 32.1089L23.9672 42.6918L35.9918 31.9943H18.086Z" fill="#FF9B92"/>
<path d="M17.9549 31.9943H0L12.0737 42.741L18.0204 32.1089L17.9549 31.9943Z" fill="#FF9D51"/>
<path d="M0 0V31.9944L11.9754 21.346L0 0Z" fill="#FF9D51"/>
<path d="M17.9877 16.0054L0 0L11.9754 21.346L17.9877 16.0054Z" fill="#FFB955"/>
<path d="M35.9913 0L17.9873 16.0054L24.0323 21.3624L35.9913 0Z" fill="#E3398B"/>
<path d="M35.9917 31.9944V0L24.0327 21.3624L35.9917 31.9944Z" fill="#F766B7"/>
</svg>
