<svg width="864" height="640" viewBox="0 0 864 640" fill="none" xmlns="http://www.w3.org/2000/svg">
<g clip-path="url(#clip0_103_247)">
<path d="M159.776 632.938H106.677L87.8721 579.072H178.581L159.776 632.938Z" fill="#FF5873"/>
<path d="M96.4733 622.491C97.4587 616.083 104.872 612.62 110.121 616.884C111.917 618.343 113.004 620.466 115.112 621.561C116.908 622.491 118.976 622.62 120.951 622.395C126.458 621.755 131.781 617.353 137.454 618.431C145.359 619.931 144.425 629.572 143.246 635.396C143.071 636.266 144.402 636.635 144.577 635.764C145.732 630.046 146.699 622.583 141.284 618.596C135.69 614.476 129.027 618.969 123.405 620.498C119.436 621.58 115.923 621.285 113.132 618.048C111.291 615.912 109.366 614.278 106.507 613.762C100.995 612.763 95.9714 616.69 95.1334 622.123C94.9999 622.993 96.3306 623.366 96.4641 622.491H96.4733Z" fill="white"/>
<path d="M120.141 639.664C126.348 628.559 137.629 621.663 149.099 616.939C162.015 611.621 175.865 608.859 189.826 608.721C190.715 608.712 190.715 607.331 189.826 607.34C175.405 607.478 161.085 610.388 147.796 616C136.336 620.838 125.17 627.836 118.953 638.969C118.521 639.747 119.713 640.442 120.146 639.664H120.141Z" fill="white"/>
<path d="M90.5428 604.458C93.0799 606.566 96.1097 608.403 99.5447 607.971C102.077 607.653 104.43 606.087 105.052 603.505C105.646 601.037 104.518 598.698 102.183 597.704C98.3153 596.051 93.4345 595.793 89.2858 595.291C88.4063 595.185 88.4109 596.567 89.2858 596.672C92.0255 597.004 94.7514 597.423 97.4634 597.952C99.9775 598.445 103.818 598.841 103.827 602.179C103.831 604.84 101.382 606.525 98.9138 606.645C96.0867 606.783 93.6094 605.213 91.519 603.477C90.8421 602.911 89.8568 603.887 90.5428 604.453V604.458Z" fill="white"/>
<path d="M796.508 416.093H637.652V511.394H796.508V416.093Z" fill="#FFE9E9"/>
<path d="M796.738 511.624H637.422V415.863H796.738V511.624ZM637.882 511.164H796.278V416.323H637.882V511.164Z" fill="white"/>
<path d="M155.066 195.132H78.2354V148.117H155.071V195.132H155.066ZM80.533 192.831H152.764V150.419H80.5376V192.831H80.533Z" fill="#FFDBDA"/>
<path d="M154.339 194.184H122.02V204.221H154.339V194.184Z" fill="#FFE9E9"/>
<path d="M154.569 204.455H121.789V193.958H154.569V204.455ZM122.25 203.995H154.108V194.419H122.25V203.995Z" fill="white"/>
<path d="M164.377 204.225V171.91H154.339V204.225H164.377Z" fill="#FFE9E9"/>
<path d="M164.607 204.455H154.108V171.68H164.607V204.455ZM154.569 203.995H164.146V172.141H154.569V203.995Z" fill="white"/>
<path d="M101.226 303.297H68.5342V314.807H101.226V303.297Z" fill="#FFE9E9"/>
<path d="M101.456 315.037H68.3037V303.067H101.456V315.037ZM68.7642 314.577H100.996V303.527H68.7642V314.577Z" fill="white"/>
<path d="M142.206 303.297H109.514V314.807H142.206V303.297Z" fill="#00C8BC"/>
<path d="M642.915 15.5797H610.223V27.0895H642.915V15.5797Z" fill="#FFE9E9"/>
<path d="M643.145 27.3197H609.992V15.3495H643.145V27.3197ZM610.453 26.8593H642.684V15.8099H610.453V26.8593Z" fill="white"/>
<path d="M683.895 15.5797H651.203V27.0895H683.895V15.5797Z" fill="#00C8BC"/>
<path d="M742.866 35.5791H563.75V104.177H742.866V35.5791Z" fill="#FFE9E9"/>
<path d="M743.096 104.408H563.52V35.3489H743.096V104.408ZM563.98 103.947H742.635V35.8093H563.98V103.947Z" fill="white"/>
<path d="M213.576 111.774L522.078 121.442L524.381 631.556L309.81 633.398L275.276 277.202L201.144 201.09L213.576 111.774Z" fill="#FFE9E9"/>
<path d="M309.603 633.633L309.585 633.421L275.06 277.303L200.904 201.173L213.383 111.539H213.59L522.313 121.221V121.442L524.616 631.787H524.385L309.603 633.633V633.633ZM201.388 201.012L275.497 277.096L275.507 277.174L310.022 633.163L524.151 631.326L521.848 121.663L213.774 112.009L201.388 201.007V201.012Z" fill="white"/>
<path d="M143.587 585.296L143.127 483.388L161.6 471.073L162.876 472.988L145.434 484.618L145.89 585.282L143.587 585.296Z" fill="#FFBE58"/>
<path d="M468.205 481.469L542.798 521.523V481.699L468.205 481.469Z" fill="#03015F"/>
<path d="M121.502 456.262L119.211 456.485L131.649 584.012L133.941 583.788L121.502 456.262Z" fill="#FFBE58"/>
<path d="M98.0515 494.053L95.8203 494.62L119.012 585.794L121.244 585.227L98.0515 494.053Z" fill="#FFBE58"/>
<path d="M87.1658 451.249L84.9346 451.817L93.6954 486.258L95.9267 485.69L87.1658 451.249Z" fill="#FFBE58"/>
<path d="M122.669 462.832C103.813 463.946 87.1908 447.565 83.2079 425.19L103.067 411.489C103.067 411.489 82.8073 407.806 82.7705 407.645C85.4365 386.807 99.3974 370.583 117.152 369.538C137.864 368.314 155.89 388.207 157.41 413.971C158.934 439.734 143.38 461.612 122.669 462.832V462.832Z" fill="#00C8BC"/>
<path d="M209.307 472.844C226.932 459.031 233.809 438.38 224.668 426.719C215.526 415.058 193.828 416.803 176.204 430.615C158.579 444.428 151.701 465.079 160.843 476.74C169.984 488.401 191.682 486.656 209.307 472.844Z" fill="#00C8BC"/>
<path d="M167.531 537.636L179.277 543.332C176.579 553.589 170.487 561.25 162.015 563.446C146.898 567.359 129.94 552.378 124.138 529.985C122.775 524.722 122.149 519.52 122.19 514.589L177.946 512.587C178.283 513.641 178.596 514.718 178.877 515.809C180.106 520.551 180.732 525.243 180.815 529.736L167.531 537.636V537.636Z" fill="#00C8BC"/>
<path d="M87.2553 451.322C86.362 453.339 85.2754 455.291 83.9907 457.169C71.9269 474.77 47.0579 478.702 28.4418 465.949C9.82578 453.196 4.51677 428.588 16.5806 410.983C17.5844 409.514 18.6803 408.142 19.859 406.867L87.2553 451.322Z" fill="#00C8BC"/>
<path d="M400.98 626.492C438.616 626.492 469.127 595.986 469.127 558.354C469.127 520.722 438.616 490.216 400.98 490.216C363.343 490.216 332.833 520.722 332.833 558.354C332.833 595.986 363.343 626.492 400.98 626.492Z" fill="white"/>
<path d="M400.98 502.186C415.986 502.186 430.09 508.029 440.703 518.636C451.312 529.243 457.155 543.35 457.155 558.354C457.155 573.358 451.312 587.46 440.703 598.072C430.094 608.68 415.986 614.522 400.98 614.522C385.974 614.522 371.87 608.68 361.257 598.072C350.648 587.465 344.805 573.358 344.805 558.354C344.805 543.35 350.648 529.248 361.257 518.636C371.866 508.029 385.974 502.186 400.98 502.186ZM400.98 490.216C363.343 490.216 332.833 520.722 332.833 558.354C332.833 595.987 363.343 626.492 400.98 626.492C438.617 626.492 469.127 595.987 469.127 558.354C469.127 520.722 438.617 490.216 400.98 490.216Z" fill="#FF5873"/>
<path d="M299.455 600.25L300.602 620.047H314.876L313.388 600.25H299.455Z" fill="#FEB2A8"/>
<path d="M259.855 600.25L261.002 620.047H275.276L273.789 600.25H259.855Z" fill="#FEB2A8"/>
<path d="M784.075 492.016H518.588V489.714H782.924V258.897H785.226V490.865C785.226 491.501 784.71 492.016 784.075 492.016V492.016Z" fill="#00C8BC"/>
<path d="M481.789 481.469H479.486V99.5321C479.486 98.8968 480.002 98.3811 480.637 98.3811H784.075C784.71 98.3811 785.226 98.8968 785.226 99.5321V227.793H782.924V100.683H481.789V481.469Z" fill="#00C8BC"/>
<path d="M771.643 90.1355H468.205V481.469H771.643V90.1355Z" fill="#00C8BC"/>
<path d="M481.789 195.823H479.486V99.5321C479.486 98.8968 480.002 98.3811 480.637 98.3811H696.948V100.683H481.789V195.823V195.823Z" fill="#03015F"/>
<path d="M481.789 209.837H479.486V481.469H481.789V209.837Z" fill="#03015F"/>
<path d="M617.392 277.975H275.276V379.262H617.392V277.975Z" fill="white"/>
<path d="M389.238 367.061H296.688V290.176H389.238V367.061ZM298.99 364.759H386.936V292.478H298.99V364.759Z" fill="#FFBE58"/>
<path d="M585.621 14.6313H210.353V163.338H585.621V14.6313Z" fill="#FFBE58"/>
<path d="M368.288 27.292H244.887V150.677H368.288V27.292Z" fill="white"/>
<path d="M585.621 163.338H197.921V171.625H585.621V163.338Z" fill="white"/>
<path d="M591.837 367.061H514.941V290.176H591.837V367.061ZM517.244 364.759H589.535V292.478H517.244V364.759Z" fill="#FFBE58"/>
<path d="M489.386 291.327H414.793V365.91H489.386V291.327Z" fill="#FF5873"/>
<path d="M367.236 328.62L342.963 304.351L318.69 328.62L342.963 352.89L367.236 328.62Z" fill="#00C8BC"/>
<path d="M749.542 150.907H634.429V456.147H749.542V150.907Z" fill="white"/>
<path d="M260.887 233.653L239.822 266.926L227.403 253.266L189.172 211.219L199.302 149.066L213.576 155.051L212.655 200.63L258.313 231.89L260.887 233.653Z" fill="#FF5873"/>
<path d="M260.887 233.654L239.822 266.926L227.403 253.266C237.045 239.947 250.859 234.165 258.313 231.89L260.887 233.654Z" fill="#03015F"/>
<path d="M197.833 158.071L213.415 163.181L213.576 152.749L199.302 147.685L197.833 158.071Z" fill="#03015F"/>
<path d="M93.6646 55.5877C94.8065 55.5647 95.9899 55.689 97.095 56.1218C98.2093 56.5453 99.1808 57.2589 100.046 57.9956C100.912 58.7368 101.709 59.5011 102.565 60.0904C103.417 60.6843 104.338 61.0802 105.309 61.2459C106.276 61.4393 107.326 61.361 108.284 61.1953C109.256 61.0249 110.103 60.5968 110.881 60.0121C111.664 59.4274 112.377 58.6585 113.174 57.839C113.971 57.0241 114.887 56.1494 116.043 55.5002C117.189 54.8465 118.534 54.4598 119.814 54.3953L120.297 54.3539C120.458 54.3447 120.619 54.3539 120.785 54.3585C121.112 54.3677 121.434 54.3769 121.761 54.3953L122.751 54.561C122.917 54.5841 123.083 54.6255 123.244 54.6807L123.732 54.8327C125.035 55.2608 126.196 56.0297 127.13 56.8124C128.074 57.5996 128.857 58.3777 129.621 58.9532C130.381 59.5379 131.099 59.943 131.901 60.1226C132.094 60.187 132.31 60.1916 132.513 60.2331C132.619 60.2469 132.716 60.2745 132.821 60.2791H133.153C133.374 60.2791 133.59 60.3113 133.807 60.2929L134.461 60.2285C135.308 60.0996 136.035 59.8417 136.721 59.3906C137.412 58.944 138.08 58.2856 138.858 57.4845C139.632 56.6881 140.548 55.7443 141.768 54.9708C142.979 54.1835 144.448 53.6725 145.861 53.4791L146.916 53.3824C147.27 53.3594 147.625 53.3824 147.979 53.3916L148.514 53.4101C148.693 53.4239 148.877 53.4607 149.062 53.4883C149.425 53.5574 149.794 53.5896 150.157 53.7001C151.64 54.05 153.021 54.8649 154.076 55.6844C155.135 56.5223 155.95 57.3418 156.668 57.9311C157.377 58.5388 157.981 58.8933 158.602 59.1189L158.837 59.2018L158.952 59.2478L159.081 59.2709C159.256 59.2985 159.426 59.3353 159.597 59.3813C159.979 59.3859 160.361 59.4688 160.748 59.4274C161.549 59.4274 162.18 59.2847 162.82 58.99C163.464 58.7092 164.141 58.2073 164.943 57.5076C165.748 56.8308 166.678 55.9468 167.889 55.201C169.087 54.4598 170.569 53.8843 171.987 53.7876C173.401 53.6771 174.732 53.7462 176.095 54.1651C177.444 54.561 178.701 55.3115 179.649 56.1908C180.612 57.0656 181.312 57.9956 181.998 58.8105C182.675 59.6438 183.356 60.3574 184.199 60.9006C185.037 61.4485 186.04 61.7846 187.122 62.024V62.5765C185.981 62.756 184.747 62.7514 183.536 62.3923C182.32 62.0516 181.233 61.3472 180.28 60.6612C179.332 59.9614 178.494 59.2709 177.669 58.7966C176.845 58.3178 176.062 58.0646 175.234 57.9725C175.022 57.9633 174.824 57.9265 174.607 57.9311L173.954 57.9633C173.737 57.9541 173.525 58.0186 173.314 58.0462C173.106 58.0876 172.881 58.0922 172.697 58.1705C171.895 58.3639 171.283 58.723 170.643 59.234C170.007 59.7497 169.358 60.4587 168.552 61.315C167.742 62.1529 166.72 63.1335 165.385 63.884C164.722 64.2661 163.989 64.5377 163.253 64.7725C162.884 64.86 162.511 64.9383 162.138 65.0119C161.765 65.0856 161.411 65.0902 161.042 65.127L160.495 65.1639C160.31 65.1731 160.131 65.1547 159.947 65.1501C159.583 65.1316 159.219 65.1132 158.851 65.0856C158.096 64.9613 157.345 64.8232 156.613 64.5331C155.135 63.9991 153.864 63.0645 152.916 62.1943C151.958 61.3104 151.249 60.4909 150.586 59.9062C149.932 59.3077 149.375 58.9071 148.693 58.6769C148.532 58.5987 148.339 58.5803 148.159 58.525C148.067 58.502 147.979 58.4698 147.883 58.4514L147.579 58.4191C147.376 58.4007 147.174 58.3547 146.971 58.3547H146.359C145.562 58.4099 144.853 58.5665 144.158 58.944C143.458 59.3169 142.744 59.9246 141.92 60.6797C141.1 61.4255 140.138 62.3232 138.909 63.0276C137.684 63.7459 136.243 64.1556 134.875 64.2707L133.857 64.3075C133.517 64.3121 133.181 64.2661 132.844 64.2431L132.338 64.197C132.168 64.174 131.997 64.128 131.827 64.0958C131.486 64.0129 131.145 63.9669 130.809 63.8425C129.446 63.442 128.226 62.6317 127.273 61.7984C126.315 60.9559 125.574 60.095 124.842 59.409C124.114 58.7138 123.41 58.1935 122.609 57.8621L122.305 57.7424C122.208 57.6963 122.102 57.6595 121.992 57.6411L121.342 57.4845L120.647 57.4155C120.532 57.4063 120.417 57.3832 120.297 57.3832L119.947 57.3925C118.994 57.374 118.124 57.572 117.304 57.9587C116.475 58.3409 115.697 58.9486 114.878 59.6714C114.063 60.385 113.192 61.2091 112.133 61.8859C111.084 62.5581 109.831 63.0599 108.583 63.1796C107.345 63.3039 106.115 63.2855 104.909 62.9448C103.707 62.6317 102.579 62.0194 101.667 61.2551C100.742 60.4955 99.9958 59.6392 99.2269 58.8611C98.4671 58.083 97.6706 57.3786 96.722 56.9136C95.7827 56.444 94.7237 56.2231 93.6416 56.1448V55.5923L93.6646 55.5877Z" fill="#00C8BC"/>
<path d="M185.756 82.8429C184.614 82.8659 183.43 82.7416 182.325 82.3089C181.211 81.8853 180.239 81.1717 179.374 80.4351C178.508 79.6938 177.712 78.9296 176.855 78.3403C176.003 77.7464 175.082 77.3504 174.111 77.1847C173.144 76.9913 172.094 77.0696 171.136 77.2353C170.165 77.4057 169.318 77.8339 168.539 78.4186C167.757 79.0033 167.043 79.7721 166.246 80.5916C165.45 81.4065 164.533 82.2812 163.378 82.9304C162.231 83.5842 160.887 83.9709 159.607 84.0353L159.123 84.0768C158.962 84.086 158.801 84.0768 158.635 84.0722C158.308 84.063 157.986 84.0538 157.659 84.0353L156.669 83.8696C156.503 83.8466 156.337 83.8051 156.176 83.7499L155.688 83.598C154.385 83.1698 153.225 82.4009 152.29 81.6183C151.346 80.831 150.563 80.0529 149.799 79.4775C149.039 78.8928 148.321 78.4876 147.52 78.3081C147.326 78.2436 147.11 78.239 146.907 78.1976C146.802 78.1838 146.705 78.1561 146.599 78.1515H146.267C146.046 78.1515 145.83 78.1193 145.614 78.1377L144.96 78.2022C144.112 78.3311 143.385 78.5889 142.699 79.0401C142.008 79.4867 141.341 80.145 140.562 80.9461C139.789 81.7426 138.873 82.6864 137.652 83.4598C136.441 84.2471 134.972 84.7582 133.559 84.9515L132.504 85.0528C132.15 85.0758 131.795 85.0528 131.441 85.0436L130.907 85.0252C130.727 85.0114 130.543 84.9745 130.359 84.9469C129.995 84.8779 129.627 84.8456 129.263 84.7351C127.78 84.3852 126.399 83.5703 125.344 82.7508C124.285 81.9129 123.47 81.0934 122.752 80.5041C122.043 79.8964 121.44 79.5419 120.818 79.3163L120.583 79.2335L120.468 79.1874L120.339 79.1644C120.164 79.1368 119.994 79.0999 119.824 79.0539C119.441 79.0493 119.059 78.9664 118.673 79.0079C117.871 79.0079 117.241 79.1506 116.6 79.4452C115.956 79.7261 115.279 80.2279 114.478 80.9277C113.672 81.6045 112.742 82.4884 111.531 83.2343C110.334 83.9755 108.851 84.551 107.433 84.6477C106.019 84.7582 104.689 84.6891 103.326 84.2701C101.977 83.8742 100.72 83.1238 99.771 82.2444C98.8086 81.3697 98.1088 80.4397 97.4227 79.6248C96.7458 78.7915 96.0643 78.0779 95.2217 77.5346C94.3837 76.9867 93.3799 76.6507 92.2979 76.4112V75.8588C93.4398 75.6792 94.6738 75.6838 95.8848 76.0429C97.1004 76.3836 98.187 77.088 99.1402 77.774C100.089 78.4738 100.927 79.1644 101.751 79.6386C102.575 80.1174 103.358 80.3706 104.187 80.4627C104.399 80.4719 104.597 80.5087 104.813 80.5041L105.467 80.4719C105.683 80.4811 105.895 80.4167 106.107 80.389C106.314 80.3476 106.54 80.343 106.724 80.2647C107.525 80.0714 108.142 79.7123 108.777 79.2012C109.413 78.6856 110.062 77.9766 110.868 77.1202C111.678 76.2823 112.7 75.3017 114.036 74.5513C114.699 74.1691 115.431 73.8975 116.168 73.6627C116.536 73.5752 116.909 73.497 117.282 73.4233C117.655 73.3496 118.009 73.345 118.378 73.3082L118.926 73.2714C119.11 73.2622 119.29 73.2806 119.474 73.2852C119.837 73.3036 120.201 73.322 120.57 73.3496C121.325 73.474 122.075 73.6121 122.807 73.9021C124.285 74.4362 125.556 75.3708 126.505 76.2409C127.463 77.1249 128.172 77.9444 128.835 78.5291C129.489 79.1276 130.046 79.5281 130.727 79.7583C130.888 79.8366 131.082 79.855 131.261 79.9102C131.353 79.9332 131.441 79.9655 131.538 79.9839L131.841 80.0161C132.044 80.0345 132.247 80.0806 132.449 80.0806H133.062C133.858 80.0253 134.567 79.8688 135.263 79.4913C135.962 79.1184 136.676 78.5106 137.5 77.7556C138.32 77.0098 139.282 76.112 140.512 75.4076C141.737 74.6894 143.178 74.2796 144.545 74.1645L145.563 74.1277C145.904 74.1231 146.24 74.1691 146.576 74.1922L147.082 74.2382C147.253 74.2612 147.423 74.3073 147.593 74.3395C147.934 74.4224 148.275 74.4684 148.611 74.5927C149.974 74.9932 151.194 75.8035 152.147 76.6368C153.105 77.4794 153.846 78.3403 154.579 79.0263C155.306 79.7215 156.011 80.2417 156.812 80.5732L157.116 80.6929C157.212 80.7389 157.318 80.7758 157.429 80.7942L158.078 80.9507L158.773 81.0198C158.888 81.029 159.003 81.052 159.123 81.052L159.473 81.0428C160.426 81.0612 161.297 80.8632 162.116 80.4765C162.945 80.0944 163.723 79.4867 164.543 78.7639C165.358 78.0502 166.228 77.2261 167.287 76.5494C168.337 75.8772 169.589 75.3754 170.837 75.2557C172.076 75.1314 173.305 75.1498 174.511 75.4905C175.713 75.8035 176.841 76.4159 177.753 77.1801C178.679 77.9397 179.424 78.7961 180.193 79.5741C180.953 80.3522 181.75 81.0566 182.698 81.5216C183.638 81.9912 184.697 82.2122 185.779 82.2951V82.8475L185.756 82.8429Z" fill="#FFBE58"/>
<path d="M653.251 536.237C654.214 536.205 655.222 536.393 656.097 536.881C656.976 537.36 657.695 538.06 658.33 538.751C658.961 539.446 659.541 540.15 660.172 540.721C660.798 541.297 661.475 541.711 662.203 541.895L662.755 542.001L663.331 542.01C663.519 542.033 663.708 541.973 663.897 541.955C664.086 541.932 664.275 541.914 664.44 541.84C665.145 541.646 665.743 541.26 666.282 540.68C666.83 540.109 667.323 539.395 667.88 538.635C668.442 537.88 669.068 537.052 669.97 536.338C670.21 536.172 670.44 535.997 670.693 535.846C670.96 535.712 671.227 535.579 671.504 535.45C672.07 535.256 672.655 535.081 673.235 535.049L673.672 535.003C673.82 534.994 673.967 535.008 674.11 535.012C674.405 535.031 674.699 535.026 674.994 535.077C675.293 535.137 675.593 535.206 675.887 535.279C676.177 535.371 676.463 535.5 676.744 535.62C677.858 536.154 678.714 536.96 679.405 537.696C680.096 538.442 680.662 539.156 681.219 539.713C681.767 540.279 682.278 540.629 682.785 540.795C682.904 540.864 683.047 540.864 683.176 540.896L683.374 540.942C683.443 540.951 683.522 540.942 683.595 540.942C683.743 540.937 683.89 540.965 684.033 540.947C684.18 540.924 684.323 540.901 684.465 540.887C685.004 540.763 685.423 540.542 685.884 540.123C686.344 539.708 686.818 539.087 687.362 538.35C687.91 537.609 688.54 536.739 689.48 535.91C689.696 535.698 689.968 535.505 690.244 535.316L690.654 535.035L691.114 534.8C691.427 534.649 691.736 534.487 692.072 534.405C692.404 534.312 692.744 534.188 693.071 534.147C693.403 534.101 693.734 534.064 694.066 534.032C694.397 534.004 694.734 534.041 695.07 534.05C695.24 534.064 695.406 534.064 695.576 534.087L696.096 534.193C696.442 534.271 696.792 534.34 697.119 534.487C698.477 534.98 699.573 535.882 700.346 536.679C701.12 537.494 701.709 538.235 702.225 538.792C702.732 539.363 703.16 539.69 703.482 539.851C703.57 539.879 703.643 539.929 703.726 539.961C703.818 539.971 703.901 539.998 703.989 540.03C704.081 540.054 704.205 540.044 704.306 540.063C704.417 540.09 704.523 540.081 704.633 540.072C705.098 540.058 705.37 540.017 705.775 539.763C706.19 539.524 706.696 539.036 707.281 538.387C707.879 537.752 708.538 536.946 709.468 536.163C709.717 535.97 709.965 535.781 710.218 535.597C710.504 535.422 710.794 535.256 711.084 535.095C711.388 534.948 711.72 534.828 712.037 534.713C712.355 534.589 712.7 534.552 713.027 534.483C713.363 534.405 713.686 534.4 714.003 534.395C714.326 534.395 714.643 534.363 714.961 534.428C715.279 534.474 715.592 534.524 715.9 534.579C716.214 534.667 716.527 534.777 716.831 534.883C718.06 535.371 719.032 536.237 719.69 537.084C720.367 537.936 720.823 538.778 721.279 539.538C721.716 540.307 722.167 540.974 722.738 541.518C723.305 542.061 724.05 542.438 724.93 542.669V543.221C724.446 543.285 723.94 543.368 723.42 543.299L723.024 543.262L722.641 543.161C722.384 543.092 722.117 543.028 721.877 542.903C720.873 542.484 720.049 541.785 719.326 541.135C718.613 540.472 717.977 539.833 717.36 539.372C716.743 538.907 716.181 538.668 715.647 538.599C715.509 538.594 715.376 538.58 715.242 538.566C715.095 538.585 714.947 538.599 714.805 538.608C714.662 538.599 714.524 538.663 714.386 538.686C714.247 538.714 714.109 538.737 714.003 538.801C713.534 538.995 713.202 539.243 712.783 539.736C712.369 540.215 711.913 540.882 711.356 541.674C710.785 542.452 710.09 543.382 709.017 544.229C708.731 544.432 708.446 544.634 708.142 544.819C707.815 544.984 707.483 545.145 707.147 545.293C706.457 545.532 705.729 545.721 705.043 545.758L704.518 545.799C704.343 545.808 704.168 545.785 703.993 545.781C703.643 545.753 703.298 545.744 702.943 545.68C702.584 545.601 702.225 545.509 701.87 545.408C701.521 545.288 701.184 545.122 700.848 544.97C699.531 544.285 698.61 543.308 697.924 542.489C697.238 541.651 696.746 540.901 696.29 540.348C695.843 539.777 695.493 539.464 695.139 539.271C695.056 539.197 694.95 539.183 694.853 539.142C694.803 539.124 694.752 539.101 694.706 539.078C694.651 539.059 694.586 539.059 694.526 539.05C694.402 539.036 694.282 538.99 694.153 538.99C694.029 538.99 693.9 538.99 693.771 538.99C693.301 539.031 692.906 539.137 692.417 539.483C691.939 539.828 691.404 540.403 690.815 541.099C690.216 541.798 689.53 542.627 688.573 543.387C687.624 544.151 686.326 544.74 685.046 544.888C684.733 544.911 684.415 544.929 684.102 544.938C683.789 544.947 683.475 544.892 683.167 544.865C683.01 544.846 682.858 544.832 682.702 544.805L682.232 544.68C681.919 544.588 681.606 544.515 681.316 544.358C680.11 543.843 679.17 542.972 678.498 542.176C677.821 541.366 677.305 540.588 676.794 539.938C676.288 539.289 675.8 538.787 675.275 538.474C675.137 538.41 675.008 538.327 674.87 538.267C674.722 538.226 674.575 538.18 674.428 538.124C674.276 538.083 674.105 538.083 673.94 538.051C673.857 538.042 673.774 538.019 673.691 538.019L673.442 538.028C672.761 538.028 672.171 538.18 671.587 538.571C670.997 538.949 670.422 539.533 669.828 540.205C669.229 540.873 668.607 541.633 667.811 542.323C667.033 543.023 665.974 543.599 664.878 543.783C664.606 543.856 664.334 543.866 664.063 543.875C663.791 543.875 663.524 543.921 663.252 543.87L662.451 543.769C662.189 543.7 661.926 543.617 661.668 543.539C660.637 543.166 659.781 542.471 659.127 541.734C658.464 540.993 657.948 540.21 657.414 539.487C656.884 538.764 656.327 538.092 655.637 537.609C654.95 537.121 654.122 536.858 653.242 536.785V536.232L653.251 536.237Z" fill="#00C8BC"/>
<path d="M723.886 563.492C722.923 563.524 721.915 563.336 721.04 562.848C720.16 562.369 719.442 561.669 718.807 560.978C718.176 560.283 717.596 559.579 716.965 559.008C716.339 558.432 715.662 558.018 714.934 557.834L714.382 557.728L713.806 557.719C713.617 557.696 713.429 557.756 713.24 557.774C713.051 557.797 712.862 557.815 712.697 557.885C711.992 558.078 711.393 558.465 710.855 559.045C710.307 559.616 709.814 560.329 709.257 561.089C708.695 561.844 708.069 562.673 707.167 563.386C706.927 563.552 706.697 563.727 706.444 563.879C706.177 564.012 705.91 564.146 705.633 564.275C705.067 564.468 704.482 564.643 703.902 564.675L703.465 564.721C703.317 564.731 703.17 564.717 703.027 564.712C702.732 564.694 702.438 564.698 702.143 564.648C701.844 564.588 701.544 564.519 701.25 564.445C700.96 564.353 700.674 564.224 700.393 564.104C699.279 563.57 698.423 562.765 697.732 562.028C697.041 561.282 696.475 560.569 695.918 560.012C695.37 559.445 694.859 559.095 694.352 558.93C694.232 558.861 694.09 558.861 693.961 558.828L693.763 558.782C693.694 558.773 693.615 558.782 693.542 558.782C693.394 558.787 693.247 558.759 693.104 558.782C692.957 558.805 692.814 558.828 692.672 558.842C692.133 558.966 691.714 559.187 691.253 559.606C690.793 560.021 690.319 560.642 689.775 561.379C689.227 562.12 688.597 562.99 687.657 563.819C687.441 564.031 687.169 564.224 686.893 564.413L686.483 564.694L686.023 564.929C685.71 565.08 685.401 565.242 685.065 565.324C684.733 565.417 684.393 565.541 684.066 565.582C683.734 565.628 683.403 565.665 683.071 565.697C682.74 565.725 682.403 565.688 682.067 565.679C681.897 565.665 681.731 565.665 681.561 565.642L681.041 565.536C680.695 565.458 680.345 565.389 680.018 565.242C678.66 564.749 677.564 563.847 676.791 563.05C676.017 562.235 675.428 561.494 674.912 560.937C674.405 560.366 673.977 560.039 673.655 559.878C673.567 559.85 673.494 559.8 673.411 559.768C673.319 559.758 673.236 559.731 673.148 559.698C673.056 559.675 672.932 559.685 672.831 559.666C672.72 559.639 672.614 559.648 672.504 559.657C672.039 559.671 671.767 559.712 671.362 559.965C670.947 560.205 670.441 560.693 669.856 561.342C669.258 561.977 668.599 562.783 667.669 563.566C667.42 563.759 667.172 563.948 666.918 564.132C666.633 564.307 666.343 564.473 666.053 564.634C665.749 564.781 665.417 564.901 665.1 565.016C664.782 565.14 664.437 565.177 664.11 565.246C663.774 565.324 663.451 565.329 663.134 565.334C662.811 565.334 662.494 565.366 662.176 565.301C661.858 565.255 661.545 565.205 661.236 565.15C660.923 565.062 660.61 564.952 660.306 564.846C659.077 564.358 658.105 563.492 657.447 562.645C656.77 561.793 656.314 560.951 655.858 560.191C655.421 559.422 654.97 558.755 654.399 558.211C653.832 557.664 653.086 557.291 652.207 557.06V556.508C652.691 556.443 653.197 556.361 653.717 556.43L654.113 556.467L654.495 556.568C654.753 556.637 655.02 556.701 655.26 556.826C656.264 557.245 657.088 557.944 657.811 558.594C658.524 559.257 659.16 559.896 659.777 560.357C660.394 560.822 660.956 561.061 661.49 561.13C661.632 561.135 661.761 561.149 661.895 561.163C662.042 561.144 662.19 561.13 662.332 561.121C662.475 561.13 662.613 561.066 662.751 561.043C662.89 561.015 663.028 560.992 663.134 560.928C663.603 560.734 663.935 560.486 664.354 559.993C664.768 559.514 665.224 558.847 665.781 558.055C666.352 557.277 667.047 556.347 668.12 555.5C668.406 555.297 668.691 555.095 668.995 554.91C669.322 554.745 669.654 554.584 669.99 554.436C670.68 554.197 671.408 554.008 672.094 553.971L672.619 553.93C672.794 553.921 672.969 553.944 673.144 553.948C673.494 553.976 673.839 553.985 674.194 554.049C674.553 554.128 674.912 554.22 675.266 554.321C675.616 554.441 675.953 554.607 676.289 554.758C677.606 555.444 678.526 556.42 679.213 557.24C679.899 558.078 680.391 558.828 680.847 559.381C681.294 559.952 681.644 560.265 681.998 560.458C682.081 560.532 682.187 560.546 682.284 560.587C682.334 560.605 682.385 560.628 682.431 560.651C682.486 560.67 682.551 560.67 682.611 560.679C682.735 560.693 682.855 560.739 682.984 560.739C683.108 560.739 683.237 560.739 683.366 560.739C683.835 560.697 684.231 560.592 684.72 560.246C685.198 559.901 685.733 559.326 686.322 558.63C686.921 557.931 687.607 557.102 688.564 556.342C689.513 555.578 690.811 554.989 692.091 554.841C692.404 554.818 692.722 554.8 693.035 554.791C693.348 554.781 693.662 554.837 693.97 554.864C694.127 554.883 694.279 554.897 694.435 554.924L694.905 555.048C695.218 555.141 695.531 555.214 695.821 555.371C697.027 555.886 697.967 556.757 698.639 557.553C699.316 558.363 699.832 559.141 700.343 559.791C700.849 560.44 701.337 560.941 701.862 561.255C702 561.319 702.129 561.402 702.267 561.462C702.415 561.503 702.562 561.549 702.709 561.604C702.861 561.646 703.032 561.646 703.197 561.678C703.28 561.687 703.363 561.71 703.446 561.71L703.695 561.701C704.376 561.701 704.966 561.549 705.55 561.158C706.14 560.78 706.715 560.196 707.309 559.523C707.908 558.856 708.529 558.096 709.326 557.406C710.104 556.706 711.163 556.13 712.259 555.946C712.531 555.873 712.802 555.863 713.074 555.854C713.346 555.854 713.613 555.808 713.885 555.859L714.686 555.96C714.948 556.029 715.211 556.112 715.468 556.19C716.5 556.563 717.356 557.258 718.01 557.995C718.673 558.736 719.189 559.519 719.723 560.242C720.253 560.965 720.81 561.637 721.5 562.12C722.186 562.608 723.015 562.871 723.895 562.944V563.497L723.886 563.492Z" fill="#FF5873"/>
<path d="M742.635 132.031C769.336 132.031 790.982 110.388 790.982 83.69C790.982 56.992 769.336 35.3489 742.635 35.3489C715.933 35.3489 694.287 56.992 694.287 83.69C694.287 110.388 715.933 132.031 742.635 132.031Z" fill="white"/>
<path d="M790.982 83.69C790.982 84.307 790.968 84.9239 790.945 85.5316H742.635V35.3489C769.336 35.3489 790.982 56.9919 790.982 83.69Z" fill="#03015F"/>
<path d="M797.888 74.9426C797.888 75.5595 797.875 76.1764 797.852 76.7842H749.541V26.6014C776.243 26.6014 797.888 48.2445 797.888 74.9426Z" fill="#FFBE58"/>
<path d="M805.523 71.2595H757.213C756.577 71.2595 756.062 70.7438 756.062 70.1085V49.1146H758.364V68.9575H804.404C804.404 68.7227 804.409 68.4925 804.409 68.2669C804.409 42.6323 783.859 21.7029 758.364 21.0906V37.5864H756.062V19.9258C756.062 19.2904 756.577 18.7748 757.213 18.7748C784.508 18.7748 806.711 40.9749 806.711 68.2669C806.711 68.8654 806.697 69.4777 806.674 70.1499C806.651 70.7668 806.145 71.2595 805.523 71.2595Z" fill="#FF5873"/>
<path d="M585.621 90.1355H623.281L585.621 48.2399V90.1355Z" fill="white"/>
<path d="M253.175 354.401V360.386L243.966 387.549L258.24 611.299H276.658L286.788 410.108V354.401H253.175Z" fill="#FFBE58"/>
<path d="M261.002 411.029L286.069 519.911L280.341 411.029H261.002Z" fill="#03015F"/>
<path d="M296.917 611.299H318.098L308.889 354.401H278.039L261.002 411.029L275.276 428.984L296.917 611.299Z" fill="#FFBE58"/>
<path d="M273.314 100.123L275.099 98.3385L176.745 -0.00247132L174.961 1.78153L273.314 100.123Z" fill="white"/>
<path d="M273.316 118.554L275.101 116.77L176.747 18.4291L174.963 20.2131L273.316 118.554Z" fill="white"/>
<path d="M864.001 632.077H670.523V635.76H864.001V632.077Z" fill="#03015F"/>
<path d="M637.651 632.159H600.668V635.843H637.651V632.159Z" fill="#FFBE58"/>
<path d="M585.183 632.242H362.762V635.926H585.183V632.242Z" fill="#03015F"/>
<path d="M229.461 632.431H67.6123V636.114H229.461V632.431Z" fill="#03015F"/>
<path d="M300.528 618.776H314.779L319.941 625.111L341.121 626.953L343.884 629.254L344.344 632.938L299.681 633.398L300.528 618.776Z" fill="#03015F"/>
<path d="M260.726 617.671C260.542 617.745 275.276 617.671 275.276 617.671L278.039 632.938H249.491L251.333 627.873L260.082 620.967L260.726 617.671Z" fill="#03015F"/>
<path d="M179.041 579.072H86.0303V591.963H179.041V579.072Z" fill="#FFBE58"/>
<path d="M92.376 591.963L171.007 600.779L174.083 591.963H92.376Z" fill="#03015F"/>
<path d="M720.303 235.159H663.667V437.271H720.303V235.159Z" fill="#FF5873"/>
<path d="M691.985 175.732L641.358 241.186H742.612L691.985 175.732Z" fill="#FF5873"/>
<path d="M298.055 141.248C285.784 139.259 274.539 132.943 266.398 123.463C258.166 113.878 253.635 101.636 253.635 88.9891C253.635 72.148 261.375 56.6927 274.875 46.5871L281.225 55.0629C270.423 63.152 264.23 75.5181 264.23 88.9891C264.23 99.1086 267.854 108.901 274.438 116.567C280.953 124.154 289.941 129.204 299.754 130.797L298.059 141.248H298.055Z" fill="#00C8BC"/>
<path d="M310.063 141.819L309.377 131.253C326.566 130.139 341.231 118.864 346.738 102.529L356.771 105.913C353.447 115.77 347.332 124.375 339.081 130.793C330.696 137.321 320.658 141.133 310.063 141.819Z" fill="#00C8BC"/>
<path d="M359.175 95.2321L348.659 93.9936C348.852 92.3454 348.953 90.6604 348.953 88.9845C348.953 65.6289 329.95 46.6285 306.592 46.6285C301.932 46.6285 297.355 47.3789 292.99 48.8568L289.592 38.8294C295.053 36.9787 300.776 36.0395 306.592 36.0395C335.789 36.0395 359.544 59.7911 359.544 88.9845C359.544 91.0701 359.419 93.1741 359.18 95.2321H359.175Z" fill="#00C8BC"/>
<path d="M302.332 141.764C289.099 140.71 276.823 134.752 267.761 124.992C258.654 115.176 253.635 102.387 253.635 88.9892C253.635 79.6938 256.08 70.5505 260.703 62.5488C265.183 54.7866 271.615 48.2399 279.291 43.6129L284.757 52.6826C271.901 60.431 264.225 74.0034 264.225 88.9892C264.225 99.7071 268.24 109.937 275.525 117.791C282.772 125.604 292.594 130.369 303.17 131.212L302.328 141.768L302.332 141.764Z" fill="#FFBE58"/>
<path d="M358.889 97.29L348.428 95.6418C348.598 94.5599 348.727 93.455 348.815 92.3546L359.373 93.1833C359.267 94.5599 359.101 95.9411 358.889 97.2946V97.29Z" fill="#FF5873"/>
<path d="M359.378 93.1787L348.82 92.35C348.907 91.2359 348.954 90.1033 348.954 88.9845C348.954 65.6289 329.951 46.6285 306.592 46.6285C300.869 46.6285 295.325 47.7472 290.103 49.9571L285.978 40.206C292.507 37.4437 299.446 36.0441 306.592 36.0441C335.789 36.0441 359.544 59.7957 359.544 88.9891C359.544 90.3841 359.489 91.7975 359.378 93.1833V93.1787Z" fill="#FF5873"/>
<path d="M425.613 52.8438H396.145V82.3089H425.613V52.8438Z" fill="white"/>
<path d="M425.613 95.6602H396.145V125.125H425.613V95.6602Z" fill="white"/>
<path d="M556.151 38.1112H440.578V51.923H556.151V38.1112Z" fill="white"/>
<path d="M492.149 62.512H440.578V73.5614H492.149V62.512Z" fill="#FF5873"/>
<path d="M522.078 107.63H440.578V121.442H522.078V107.63Z" fill="white"/>
<path d="M473.731 132.031H440.578V143.081H473.731V132.031Z" fill="white"/>
<path d="M499.977 132.031H483.4V143.081H499.977V132.031Z" fill="#FF5873"/>
<path d="M528.065 555.592H393.152V580.913H528.065V555.592Z" fill="#FF5873"/>
<path d="M540.036 580.913H405.124V606.235H540.036V580.913Z" fill="#FF5873"/>
<path d="M524.381 606.235H389.469V631.556H524.381V606.235Z" fill="#FF5873"/>
<path d="M472.119 555.592H449.097V580.913H472.119V555.592Z" fill="#FFBE58"/>
<path d="M505.502 580.913H482.479V606.235H505.502V580.913Z" fill="#FFBE58"/>
<path d="M451.449 606.235H428.427V631.556H451.449V606.235Z" fill="#FFBE58"/>
<path d="M827.819 159.656L817.69 149.528L807.561 159.656L817.69 169.784L827.819 159.656Z" fill="#FFBE58"/>
<path d="M149.572 147.689L139.443 137.561L129.314 147.689L139.443 157.817L149.572 147.689Z" fill="#FFBE58"/>
<path d="M398.852 189.704L401.228 184.336L418.016 176.689L431.351 163.338H408.807L395.454 170.704L389.468 163.338H384.229L387.627 177.61L386.31 186.173L398.852 189.704Z" fill="#FEB2A8"/>
<path d="M211.532 152.026L216.799 149.07L221.404 134.798C221.404 134.798 216.339 135.259 214.037 139.862L210.353 142.611V118.339L202.986 129.734L201.604 141.704L203.161 149.07L211.532 152.026Z" fill="#FEB2A8"/>
<path d="M606.921 181.754H593.107V261.862H606.921V181.754Z" fill="white"/>
<path d="M589.424 227.793H575.61V261.862H589.424V227.793Z" fill="white"/>
<path d="M571.927 212.6H558.113V261.862H571.927V212.6Z" fill="#FF5873"/>
<path d="M554.43 237.001H540.616V261.862H554.43V237.001Z" fill="white"/>
<path d="M536.933 209.837H523.119V261.862H536.933V209.837Z" fill="white"/>
<path d="M519.436 235.619H505.622V261.862H519.436V235.619Z" fill="#FF5873"/>
<path d="M489.387 456.147L620.155 455.226V403.202C620.155 403.202 598.514 403.202 585.161 423.92C571.808 444.637 552.469 434.969 552.469 434.969C552.469 434.969 516.093 414.251 489.387 456.147Z" fill="#FFBE58"/>
<path d="M809.405 322.928L809.57 322.735C810.132 322.081 811.108 321.989 811.79 322.518C813.899 324.153 816.514 325.17 819.323 325.17C823.398 325.17 825.751 323.223 825.751 320.506C825.751 317.339 823.444 316.432 820.456 315.166L816.155 313.264C813.213 312.086 809.773 310.005 809.773 305.613C809.773 301.221 813.848 297.735 819.507 297.735C822.564 297.735 825.313 298.748 827.404 300.318C828.131 300.866 828.237 301.916 827.662 302.62C827.123 303.279 826.174 303.398 825.474 302.919C823.794 301.764 821.846 301.087 819.369 301.087C815.929 301.087 813.618 302.717 813.618 305.387C813.618 308.237 816.381 309.282 818.913 310.277L823.08 312.132C826.745 313.582 829.646 315.663 829.646 320.055C829.646 324.765 825.663 328.522 819.143 328.522C815.437 328.522 812.154 327.27 809.612 325.244C808.898 324.673 808.806 323.619 809.405 322.928Z" fill="#FF5873"/>
<path d="M822.072 327.044L820.023 335L817.472 327.191L822.072 327.044Z" fill="#FF5873"/>
<path d="M818.642 291.262L821.188 299.057L816.588 299.204L818.642 291.262Z" fill="#FF5873"/>
<path d="M122.411 261.696L122.576 261.503C123.138 260.849 124.114 260.757 124.796 261.286C126.905 262.921 129.52 263.938 132.329 263.938C136.404 263.938 138.757 261.991 138.757 259.274C138.757 256.107 136.45 255.2 133.461 253.934L129.161 252.032C126.218 250.854 122.779 248.773 122.779 244.381C122.779 239.988 126.854 236.503 132.513 236.503C135.57 236.503 138.319 237.516 140.41 239.086C141.137 239.634 141.243 240.684 140.667 241.388C140.129 242.046 139.18 242.166 138.48 241.687C136.8 240.532 134.852 239.855 132.375 239.855C128.935 239.855 126.624 241.485 126.624 244.155C126.624 247.005 129.386 248.05 131.919 249.044L136.086 250.9C139.751 252.35 142.652 254.431 142.652 258.823C142.652 263.533 138.669 267.29 132.149 267.29C128.442 267.29 125.159 266.037 122.618 264.012C121.904 263.441 121.812 262.387 122.411 261.696Z" fill="#FF5873"/>
<path d="M135.078 265.812L133.025 273.767L130.479 265.959L135.078 265.812Z" fill="#FF5873"/>
<path d="M131.643 230.03L134.194 237.825L129.594 237.972L131.643 230.03Z" fill="#FF5873"/>
<path d="M720.256 406.112C710.785 402.442 700.379 397.811 697.294 387.194C695.986 382.696 696 377.369 698.703 373.364C701.562 369.124 707.018 367.848 710.26 363.958C715.357 357.84 716.702 347.762 709.556 342.66C705.679 339.894 700.563 339.01 695.977 338.204C690.194 337.191 684.337 336.749 678.489 336.316C675.303 336.081 672.116 335.851 668.939 335.529C665.808 335.211 662.424 335.055 659.417 334.042C654.209 332.288 649.577 327.375 652.064 321.667C652.414 320.861 651.226 320.156 650.871 320.971C649.25 324.691 649.89 328.407 652.676 331.381C655.609 334.512 659.449 335.686 663.561 336.27C676.348 338.084 689.466 337.61 702.023 340.939C706.871 342.223 711.812 344.645 712.944 350.018C714.151 355.731 711.13 362.25 706.48 365.583C702.617 368.355 698.38 370.141 696.377 374.764C694.642 378.769 694.766 383.428 695.963 387.562C699.177 398.69 709.942 403.593 719.888 407.447C720.717 407.769 721.076 406.434 720.256 406.116V406.112Z" fill="white"/>
<path d="M704.846 442.888C707.733 439.278 710.984 435.061 710.951 430.199C710.928 426.415 708.723 423.243 705.5 421.401C702.078 419.445 697.934 418.878 694.053 419.233C689.614 419.638 682.366 421.36 680.359 415.821C678.48 410.637 682.413 405.205 684.526 400.744C686.345 396.918 687.349 392.935 686.262 388.736C684.158 380.62 675.957 374.612 667.692 374.372C657.18 374.068 647.971 381.172 642.533 389.657C642.049 390.408 643.247 391.103 643.725 390.352C648.611 382.738 656.618 376.251 665.979 375.767C674.612 375.325 683.725 381.49 685.194 390.316C686.69 399.284 677.288 405.812 678.678 414.684C680.041 423.381 689.821 420.596 695.848 420.504C700.287 420.434 705.693 421.76 708.262 425.724C711.877 431.3 707.337 437.575 703.874 441.903C703.326 442.589 704.298 443.574 704.85 442.879L704.846 442.888Z" fill="white"/>
<path d="M726.16 275.397C697.156 294.632 672.264 321.634 662.581 355.726C659.845 365.349 658.45 375.316 658.529 385.32C658.538 386.209 659.919 386.209 659.91 385.32C659.634 349.916 678.222 317.652 703.888 294.342C711.061 287.828 718.783 281.944 726.86 276.59C727.596 276.102 726.906 274.905 726.164 275.397H726.16Z" fill="white"/>
<path d="M690.834 310.433C692.868 310.433 694.518 308.784 694.518 306.75C694.518 304.716 692.868 303.067 690.834 303.067C688.8 303.067 687.15 304.716 687.15 306.75C687.15 308.784 688.8 310.433 690.834 310.433Z" fill="white"/>
<path d="M114.12 390.468L112.746 390.612L119.193 451.842L120.567 451.697L114.12 390.468Z" fill="white"/>
<path d="M155.319 390.053L116.532 424.029L117.442 425.067L156.23 391.092L155.319 390.053Z" fill="white"/>
<path d="M155.719 395.7L116.938 429.682L117.848 430.72L156.629 396.738L155.719 395.7Z" fill="white"/>
<path d="M229.077 427.274L164.607 469.617L165.366 470.772L229.836 428.428L229.077 427.274Z" fill="white"/>
<path d="M190.533 452.871L190.141 454.195L221.439 463.476L221.832 462.152L190.533 452.871Z" fill="white"/>
<path d="M186.295 456.098L185.903 457.423L220.424 467.627L220.816 466.303L186.295 456.098Z" fill="white"/>
<path d="M53.7893 423.037L0.466797 443.792L0.967902 445.079L54.2904 424.324L53.7893 423.037Z" fill="white"/>
<path d="M53.7874 419.106L0.464844 439.861L0.965949 441.148L54.2885 420.393L53.7874 419.106Z" fill="white"/>
<path d="M61.6279 428.262L58.8691 456.344L60.2439 456.479L63.0027 428.397L61.6279 428.262Z" fill="white"/>
<path d="M36.532 479.167C31.8354 479.167 28.0137 475.345 28.0137 470.649C28.0137 465.953 31.8354 462.132 36.532 462.132C41.2286 462.132 45.0504 465.953 45.0504 470.649C45.0504 475.345 41.2286 479.167 36.532 479.167ZM36.532 463.513C32.5952 463.513 29.395 466.713 29.395 470.649C29.395 474.586 32.5952 477.786 36.532 477.786C40.4689 477.786 43.669 474.586 43.669 470.649C43.669 466.713 40.4689 463.513 36.532 463.513Z" fill="white"/>
<path d="M136.45 384.326C131.753 384.326 127.932 380.505 127.932 375.809C127.932 371.113 131.753 367.291 136.45 367.291C141.147 367.291 144.968 371.113 144.968 375.809C144.968 380.505 141.147 384.326 136.45 384.326ZM136.45 368.673C132.513 368.673 129.313 371.872 129.313 375.809C129.313 379.745 132.513 382.945 136.45 382.945C140.387 382.945 143.587 379.745 143.587 375.809C143.587 371.872 140.387 368.673 136.45 368.673Z" fill="white"/>
<path d="M172.826 446.479C168.129 446.479 164.308 442.658 164.308 437.962C164.308 433.266 168.129 429.444 172.826 429.444C177.523 429.444 181.344 433.266 181.344 437.962C181.344 442.658 177.523 446.479 172.826 446.479ZM172.826 430.826C168.889 430.826 165.689 434.025 165.689 437.962C165.689 441.898 168.889 445.098 172.826 445.098C176.763 445.098 179.963 441.898 179.963 437.962C179.963 434.025 176.763 430.826 172.826 430.826Z" fill="white"/>
<path d="M149.557 511.528L148.191 511.733L154.637 554.551L156.003 554.345L149.557 511.528Z" fill="white"/>
<path d="M149.649 518.635L123.405 533.828L124.097 535.023L150.341 519.831L149.649 518.635Z" fill="white"/>
<path d="M150.097 522.54L123.854 537.733L124.546 538.928L150.79 523.735L150.097 522.54Z" fill="white"/>
<path d="M261.149 410.914C263.719 413.754 266.242 416.632 268.751 419.523L272.499 423.869C273.747 425.319 274.995 426.769 276.224 428.234L276.422 428.468L276.478 428.841C277.049 432.626 277.615 436.41 278.144 440.199L278.95 445.88L279.719 451.566C280.769 459.144 281.708 466.736 282.574 474.337L287.436 519.98L292.34 565.619L297.097 611.276L296.733 611.318L290.669 565.817L284.752 520.298L278.794 474.784C277.854 467.192 276.993 459.591 276.238 451.976L275.653 446.267L275.11 440.554C274.737 436.746 274.401 432.934 274.074 429.122L274.327 429.73C273.181 428.201 272.048 426.659 270.915 425.117L267.526 420.485C265.279 417.387 263.042 414.279 260.854 411.139L261.145 410.909L261.149 410.914Z" fill="white"/>
<path d="M290.931 219.966V235.619L270.211 233.778L271.132 209.837L290.931 219.966Z" fill="#FEB2A8"/>
<path d="M288.528 174.442C288.528 174.442 292.621 186.385 305.864 187.679C306.172 187.711 306.329 188.065 306.14 188.309L301.522 194.184L298.759 204.773L294.155 217.204L276.197 203.392C276.197 203.392 264.225 187.278 265.146 186.818C266.067 186.357 288.528 174.442 288.528 174.442Z" fill="#FEB2A8"/>
<path d="M274.356 187.278L290.932 173.006C290.932 173.006 298.608 165.681 294.22 155.286C291.71 149.333 284.541 146.759 278.997 150.079C278.067 150.636 277.128 151.358 276.198 152.288C268.83 159.655 267.91 161.957 261.003 163.338C255.132 164.512 250.412 171.625 250.873 176.229C251.333 180.833 255.938 186.818 261.003 186.818C261.003 186.818 255.017 189.58 255.938 197.407C256.859 205.234 266.068 205.694 267.91 207.996C269.751 210.298 270.212 215.362 270.212 215.362C270.212 215.362 270.212 219.506 275.277 219.045C280.342 218.585 280.342 214.441 280.342 214.441C280.342 214.441 290.011 231.936 303.364 226.412C310.073 223.635 312.246 219.584 312.753 216.237C313.172 213.461 312.352 210.643 310.621 208.438C308.043 205.151 302.885 198.277 301.523 194.184C301.523 194.184 291.393 196.486 292.774 207.996C292.774 207.996 282.644 201.09 274.356 187.278Z" fill="#03015F"/>
<path d="M267.448 230.394V222.199L295.075 228.644V232.788L267.448 230.394Z" fill="#FFBE58"/>
<path d="M267.449 229.634C267.449 229.634 249.952 231.936 239.361 254.495C228.771 277.055 253.175 354.4 253.175 354.4H308.889L326.847 276.134L375.254 266.926L397.296 198.788L381.641 194.184L356.136 243.23L295.007 231.858C293.823 231.605 292.626 231.434 291.42 231.352L267.444 229.639L267.449 229.634Z" fill="#FF5873"/>
<path d="M380.582 196.081L396.491 201.279L400.059 190.041L385.325 185.897L380.582 196.081Z" fill="#03015F"/>
<path d="M273.434 194.184L275.999 202.25C275.999 202.25 269.751 204.773 267.448 199.709C265.146 194.645 269.751 192.343 273.434 194.184Z" fill="#FEB2A8"/>
<path d="M326.847 276.134L306.587 280.277L318.098 314.264L326.847 276.134Z" fill="#03015F"/>
<path d="M253.175 360.386H309.106L308.889 354.401H253.175V360.386Z" fill="#03015F"/>
<path d="M266.988 353.48H264.686V361.767H266.988V353.48Z" fill="#FFBE58"/>
<path d="M291.853 353.48H289.551V361.767H291.853V353.48Z" fill="#FFBE58"/>
<path d="M301.757 286.359C302.001 285.342 302.263 284.333 302.535 283.33L302.958 281.829C303.096 281.327 303.253 280.83 303.396 280.333L303.506 279.96L304.027 279.808C306.937 278.965 309.865 278.229 312.798 277.506L317.209 276.484C318.683 276.166 320.156 275.848 321.639 275.568C324.6 274.992 327.583 274.532 330.562 274.062L339.491 272.593L357.342 269.61C363.301 268.662 369.254 267.676 375.222 266.765L375.281 267.083C369.406 268.459 363.512 269.757 357.628 271.097L339.946 274.974L331.11 276.935C328.168 277.607 325.23 278.293 322.27 278.859C320.792 279.149 319.304 279.403 317.817 279.656L313.346 280.351C310.358 280.775 307.365 281.18 304.349 281.479L304.98 280.954C304.745 281.419 304.519 281.884 304.275 282.345L303.557 283.73C303.069 284.651 302.572 285.567 302.051 286.474L301.752 286.355L301.757 286.359Z" fill="white"/>
<path d="M281.543 177.025C283.403 175.635 285.111 174.042 286.566 172.274C287.298 171.399 287.971 170.474 288.546 169.512C289.136 168.554 289.637 167.555 290.02 166.524C290.416 165.497 290.614 164.415 290.696 163.352C290.779 162.288 290.812 161.238 290.729 160.175C290.623 158.034 290.001 155.907 289.297 153.605L289.49 153.481C290.379 154.305 291.166 155.263 291.746 156.358C292.373 157.431 292.782 158.642 293.013 159.89C293.257 161.142 293.211 162.449 292.953 163.692C292.686 164.935 292.257 166.128 291.719 167.242C291.185 168.361 290.54 169.406 289.812 170.377C289.08 171.344 288.265 172.237 287.404 173.066C286.534 173.885 285.613 174.645 284.655 175.34C283.698 176.04 282.708 176.68 281.658 177.228L281.538 177.03L281.543 177.025Z" fill="#FF5873"/>
<path d="M452.09 353.912C466.061 353.912 477.387 342.588 477.387 328.619C477.387 314.649 466.061 303.325 452.09 303.325C438.119 303.325 426.793 314.649 426.793 328.619C426.793 342.588 438.119 353.912 452.09 353.912Z" fill="white"/>
<path d="M277.555 206.329C278.057 207.618 278.518 208.912 279.029 210.192L280.502 214.022C280.755 214.653 281.046 215.275 281.34 215.887C281.621 216.504 281.86 217.125 282.035 217.775C282.22 218.415 282.362 219.073 282.51 219.722C282.643 220.399 282.772 221.016 282.938 221.748L282.768 221.904C282.063 221.573 281.492 221.002 281.045 220.436C280.58 219.856 280.217 219.239 279.89 218.608C279.213 217.346 279.07 215.919 278.748 214.575C278.596 213.898 278.439 213.221 278.301 212.545C278.168 211.863 278.043 211.182 277.924 210.5C277.712 209.133 277.482 207.77 277.339 206.389L277.564 206.334L277.555 206.329Z" fill="#FEB2A8"/>
<path d="M264.212 186.951L280.144 185.8V188.102L264.212 186.951Z" fill="#FEB2A8"/>
<path d="M354.23 243.897C354.23 243.897 350.017 235.923 359.396 240.582C368.775 245.242 355.8 248.501 354.23 243.897Z" fill="#FF5873"/>
<path d="M211.117 198.217C211.117 198.217 218.802 196.302 213.576 203.378C208.35 210.454 211.117 198.217 211.117 198.217Z" fill="#FF5873"/>
<path d="M529.482 325.221C531.693 326.027 533.834 326.943 535.947 327.905C538.065 328.863 540.137 329.885 542.205 330.921C544.263 331.975 546.303 333.043 548.32 334.166C549.328 334.719 550.336 335.28 551.331 335.86C552.33 336.431 553.329 337.007 554.315 337.601L550.774 338.231C552.731 335.547 554.766 332.919 556.833 330.322C558.919 327.739 561.023 325.166 563.22 322.666C565.407 320.161 567.654 317.698 569.984 315.299C572.318 312.91 574.703 310.553 577.3 308.361C575.827 311.418 574.146 314.319 572.415 317.178C570.679 320.032 568.856 322.822 566.977 325.566C565.108 328.319 563.141 330.999 561.162 333.664C559.163 336.316 557.123 338.941 555.019 341.51L553.449 343.42L551.478 342.14C550.511 341.514 549.558 340.865 548.61 340.216C547.656 339.571 546.708 338.913 545.769 338.25C543.881 336.929 542.021 335.561 540.179 334.171C538.342 332.767 536.514 331.349 534.732 329.862C532.945 328.379 531.181 326.855 529.492 325.221H529.482Z" fill="#FFBE58"/>
<path d="M720.303 241.186H695.314L720.303 251.692V241.186Z" fill="#03015F"/>
<path d="M326.202 626.957C325.838 626.593 325.594 626.188 325.355 625.802C325.092 625.373 324.867 625 324.517 624.738C324.001 624.347 323.412 624.301 322.68 624.347C322.633 624.347 322.564 624.351 322.482 624.356C321.842 624.379 321.547 624.42 321.413 624.457C321.234 624.66 320.944 624.743 320.672 624.651C320.313 624.526 320.124 624.135 320.248 623.771C320.667 622.56 321.496 621.46 322.85 620.314C323.071 620.125 323.31 619.95 323.545 619.766C324.227 619.25 324.867 618.767 325.115 618.072C325.304 617.542 325.212 616.957 325.106 616.561C324.572 614.619 324.042 614.752 323.821 614.817C323.043 615.019 322.265 616.133 321.97 616.552C321.34 617.455 320.842 618.523 320.492 619.72C319.995 621.428 319.857 623.357 320.073 625.604L318.697 625.737C318.462 623.311 318.618 621.216 319.162 619.333C319.553 617.989 320.115 616.787 320.833 615.76C321.505 614.798 322.348 613.771 323.462 613.477C324.839 613.113 325.838 614.029 326.432 616.193C326.662 617.036 326.653 617.841 326.414 618.527C326.027 619.618 325.148 620.281 324.374 620.866C324.158 621.032 323.941 621.193 323.739 621.363C323.085 621.916 322.574 622.45 322.196 622.979C322.274 622.979 322.353 622.975 322.431 622.97C322.5 622.97 322.551 622.97 322.587 622.966C323.439 622.91 324.434 622.947 325.346 623.633C325.903 624.057 326.234 624.6 326.529 625.079C326.732 625.41 326.925 625.728 327.174 625.976L326.197 626.953L326.202 626.957Z" fill="#FF5873"/>
<path d="M245.227 625.235L243.979 624.641C244.864 622.777 247.083 622.003 248.869 622.077C250.472 622.137 251.95 622.698 253.387 623.242L253.93 623.449C254.271 623.573 254.57 623.679 254.823 623.656C254.989 623.642 255.113 623.55 255.127 623.504C255.141 623.444 255.035 623.26 254.823 623.131C254.671 623.039 254.478 622.961 254.28 622.883C254.054 622.795 253.824 622.703 253.589 622.565C252.682 622.045 252.088 621.027 252.079 619.978C252.07 618.928 252.645 617.906 253.548 617.367C254.98 616.515 256.725 617.026 257.816 617.915C258.87 618.771 259.506 619.955 260.123 621.193L258.884 621.805C258.323 620.668 257.788 619.669 256.946 618.988C256.251 618.421 255.113 618.044 254.257 618.555C253.778 618.84 253.456 619.407 253.46 619.968C253.46 620.525 253.792 621.087 254.275 621.368C254.423 621.455 254.602 621.524 254.786 621.598C255.017 621.69 255.284 621.796 255.532 621.948C256.131 622.312 256.651 623.03 256.462 623.822C256.306 624.476 255.675 624.973 254.924 625.033C254.39 625.079 253.916 624.918 253.442 624.743L252.889 624.535C251.499 624.011 250.186 623.509 248.814 623.458C247.47 623.403 245.84 623.937 245.223 625.235H245.227Z" fill="#FF5873"/>
<path d="M297.838 386.385L296 386.496L309.067 603.846L310.905 603.735L297.838 386.385Z" fill="#03015F"/>
<path d="M540.036 579.762H390.334V582.064H540.036V579.762Z" fill="white"/>
<path d="M542.135 604.269H385.757V606.571H542.135V604.269Z" fill="white"/>
<path d="M485.905 457.298L485.887 454.996C486.697 454.992 619.841 453.9 621.19 453.887L621.209 456.189C619.864 456.198 486.716 457.294 485.905 457.298V457.298Z" fill="white"/>
<path d="M621.174 398.529L618.872 398.538L619.1 455.258L621.402 455.249L621.174 398.529Z" fill="white"/>
<path d="M491.343 448.012H489.041V459.209H491.343V448.012Z" fill="white"/>
<path d="M529.22 424.076H527.378V435.273H529.22V424.076Z" fill="white"/>
<path d="M568.174 431.203H566.332V442.4H568.174V431.203Z" fill="white"/>
<path d="M607.046 400.495H605.204V411.692H607.046V400.495Z" fill="white"/>
</g>
<defs>
<clipPath id="clip0_103_247">
<rect width="863.549" height="640" fill="white" transform="translate(0.451172)"/>
</clipPath>
</defs>
</svg>
