<svg width="62" height="80" viewBox="0 0 62 80" fill="none" xmlns="http://www.w3.org/2000/svg">
<g clip-path="url(#clip0_102_110)">
<path d="M34.566 2.0452L30.8525 5.75866L46.4533 21.3594C48.7149 23.621 52.4004 24.0538 54.8714 22.0295C57.7193 19.7051 57.8729 15.496 55.3391 12.9622L44.422 2.0452C41.6998 -0.677075 37.2883 -0.677075 34.566 2.0452Z" fill="#00859B"/>
<path d="M46.6979 21.5967L30.8528 5.75168L24.2566 12.348C21.5343 15.0702 21.5343 19.4817 24.2566 22.204L35.1736 33.121C37.5608 35.5082 37.5608 39.3753 35.1736 41.7625L39.4943 37.4418L51.0186 25.9175L55.3394 21.5967C52.9521 23.9839 49.0851 23.9839 46.6979 21.5967Z" fill="#00C689"/>
<path d="M17.2831 2.0452L6.97335 12.3549C4.25107 15.0772 4.25107 19.4887 6.97335 22.211L26.2875 41.5252C28.5491 43.7868 32.2347 44.2195 34.7057 42.1953C37.5536 39.8709 37.7071 35.6618 35.1733 33.128L24.2563 22.211C21.534 19.4887 21.534 15.0772 24.2563 12.3549L30.8526 5.75866L27.1391 2.0452C24.4169 -0.677075 20.0054 -0.677075 17.2831 2.0452ZM13.1089 19.4817C12.1038 20.4869 10.4704 20.4869 9.46528 19.4817C8.46013 18.4766 8.46013 16.8432 9.46528 15.8381C10.4704 14.8329 12.1038 14.8329 13.1089 15.8381C14.1141 16.8432 14.1141 18.4766 13.1089 19.4817Z" fill="#00ED65"/>
<path d="M3.79723 59.8761L7.07792 71.6726L10.3377 59.8761H13.7998L17.1085 71.6726L20.3682 59.8761H23.9839L18.8046 75.5117H15.161L12.0129 64.3644L8.79504 75.5117H5.15836L0 59.8761H3.79723Z" fill="#283A50"/>
<path d="M30.9779 75.5117V74.1017C30.1752 75.1069 28.8769 75.6653 27.2016 75.6653C24.6329 75.6653 23.0693 74.1017 23.0693 71.91C23.0693 69.7182 24.7027 68.3152 27.6483 68.2942H30.957V68.0708C30.957 66.8005 30.1054 66.0606 28.458 66.0606C27.3831 66.0606 26.1336 66.4165 24.8842 67.1076L23.8092 64.7413C25.5962 63.8478 27.1388 63.3592 29.2398 63.3592C32.4577 63.3592 34.3074 64.9647 34.3354 67.673L34.3563 75.5117H30.9849H30.9779ZM30.957 71.4004V70.3254H28.2556C26.9364 70.3254 26.2872 70.7303 26.2872 71.6866C26.2872 72.6429 26.9992 73.2083 28.1649 73.2083C29.6168 73.2083 30.7545 72.4265 30.957 71.4004Z" fill="#283A50"/>
<path d="M40.6522 58.9338V75.5048H37.2109V58.9338H40.6522Z" fill="#283A50"/>
<path d="M47.4237 58.9338V75.5048H43.9824V58.9338H47.4237Z" fill="#283A50"/>
<path d="M52.0654 80C50.7951 80 49.7899 79.644 48.8057 78.8413L50.2576 76.3633C50.7951 76.8101 51.2627 77.0125 51.8211 77.0125C52.5331 77.0125 53.0706 76.6565 53.4056 75.9375L53.7407 75.2674L48.7568 63.4988H52.3098L55.4578 71.7634L58.2918 63.4988H61.733L56.463 76.8519C55.6114 78.9739 54.1386 80 52.0654 80Z" fill="#283A50"/>
</g>
<defs>
<clipPath id="clip0_102_110">
<rect width="61.7398" height="80" fill="white"/>
</clipPath>
</defs>
</svg>
