<svg width="32" height="32" viewBox="0 0 32 32" fill="none" xmlns="http://www.w3.org/2000/svg">
<g clip-path="url(#clip0_22_228)">
<path d="M16 26.0688C14.9763 26.0688 13.945 25.8125 13.07 25.1238L0 15.6813V29C0 30.6563 1.34375 32 3 32H29C30.6562 32 32 30.6563 32 29.0563V15.6813L18.9312 25.125C18.0562 25.75 17.025 26.0688 16 26.0688ZM30.85 10.1875C30.3 9.75 29.775 9.34375 29 8.75625V5.99875C29 4.3425 27.6562 2.99875 26 2.99875L21.1562 2.99885C20.9609 2.85823 20.7891 2.73323 20.5859 2.5926C19.5375 1.82063 17.4562 -0.023323 16 0.000114543C14.55 -0.023323 12.4625 1.82063 11.4125 2.59375C11.2094 2.73438 11.0375 2.85938 10.8422 3H6C4.34375 3 3 4.34375 3 6V8.7575C2.22688 9.34375 1.70312 9.75 1.14875 10.1875C0.421875 10.75 0 11.625 0 12.55V13.2138L6 17.5494V6H26V17.5438L32 13.2081V12.55C32 11.625 31.5813 10.75 30.85 10.1875ZM11 15.9438H21C21.5523 15.9438 22 15.496 22 15C22 14.4476 21.5523 14 21 14H11C10.4477 14 10 14.4476 10 15C10 15.55 10.45 15.9438 11 15.9438ZM11 11.9438H21C21.5523 11.9438 22 11.496 22 10.9438C22 10.3914 21.5523 10 21 10H11C10.4477 10 10 10.4476 10 10.9438C10 11.55 10.45 11.9438 11 11.9438Z" fill="#ECB31F"/>
</g>
<defs>
<clipPath id="clip0_22_228">
<rect width="32" height="32" fill="white"/>
</clipPath>
</defs>
</svg>
