<svg width="320" height="36" viewBox="0 0 320 36" fill="none" xmlns="http://www.w3.org/2000/svg">
<g clip-path="url(#clip0_83_112)">
<path d="M20.5337 7.06666C19.7337 6.63999 17.387 6.90666 14.667 7.75999C9.81367 11.0133 5.76034 15.9733 5.44034 23.76C5.387 23.9733 4.907 23.76 4.85367 23.7067C3.52034 21.2 2.987 18.5867 4.107 14.8C4.32034 14.4267 3.68034 14.0533 3.52034 14.1067C3.307 14.32 2.24034 15.44 1.60034 16.56C-1.653 22.2667 0.480335 29.5733 6.24034 32.7733C11.947 35.9733 19.2537 33.8933 22.4537 28.1333C26.0803 21.4133 22.667 8.23999 20.5337 7.06666Z" fill="#81B441"/>
<path d="M41.0663 10.2133C34.2397 10.2133 29.333 15.28 29.333 22.2667C29.333 29.36 34.2397 34.2667 41.333 34.2667C44.9063 34.2667 47.733 33.1467 49.973 30.8533C50.6663 30.1067 50.7197 29.4133 50.7197 29.1467C50.7197 28.0267 49.9197 27.2267 48.693 27.2267C48.1063 27.2267 47.573 27.44 47.0397 27.9733C45.7597 29.1467 44.053 30.3733 41.333 30.3733C37.4397 30.3733 34.3463 27.4933 34.133 23.76H49.5463C51.1997 23.76 51.9997 22.96 51.9997 21.36C51.9997 20.9333 51.9997 20.56 51.9463 19.8667C51.093 13.7867 47.0397 10.2133 41.0663 10.2133ZM41.0663 14C44.7997 14 47.1463 16.4 47.253 20.1867H34.0797C34.5063 16.6133 37.4397 14 41.0663 14Z" fill="#121112"/>
<path d="M66.7199 10.2133C63.5732 10.2133 60.5332 11.9733 59.3599 14.48V12.9333C59.3599 10.5333 57.4932 10.48 57.1199 10.48C55.9999 10.48 54.8799 11.1733 54.8799 12.9333V31.3867C54.8799 33.84 56.7999 34 57.1732 34C57.5466 34 59.5732 33.84 59.5732 31.3867V21.4667C59.5732 17.1467 62.0265 14.16 65.5465 14.16C68.9066 14.16 70.6132 16.4 70.6132 20.9333V31.3333C70.6132 33.7867 72.5332 33.9467 73.0132 33.9467C73.4932 33.9467 75.3066 33.7867 75.3066 31.3333V19.44C75.1999 15.0133 73.0132 10.2133 66.7199 10.2133Z" fill="#121112"/>
<path d="M96.4265 10.48C95.3065 10.48 94.5599 11.0667 94.1332 12.3467L87.7332 28.5067L81.3332 12.3467C80.7999 11.0667 80.0532 10.48 78.9332 10.48C77.6532 10.48 76.5332 11.5467 76.5332 12.72C76.5332 13.04 76.5332 13.4133 76.8532 14.0533L84.2132 31.4933C85.1199 33.5733 86.5065 34 87.5732 34C88.6399 34 90.0799 33.5733 90.9332 31.4933L98.3999 14C98.6132 13.4133 98.7199 12.9333 98.7199 12.72C98.7199 11.3867 97.7599 10.48 96.4265 10.48Z" fill="#121112"/>
<path d="M110.079 10.2133C107.093 10.2133 104.266 11.0133 102.186 12.6133C101.493 13.1467 101.119 13.7333 101.119 14.48C101.119 15.5467 101.919 16.3467 102.879 16.3467C103.306 16.3467 103.839 16.1867 104.319 15.8133C106.079 14.64 107.733 14.1067 109.599 14.1067C113.119 14.1067 115.039 15.8667 115.039 18.96V19.4933C107.199 19.4933 99.3594 20.4533 99.3594 27.2267C99.3594 32.08 103.519 34.32 107.626 34.32C110.879 34.32 113.493 33.04 115.199 30.5333V31.7067C115.199 33.4667 116.373 34.1067 117.439 34.1067C117.653 34.1067 119.519 34.0533 119.519 31.7067V19.28C119.573 13.52 116.106 10.2133 110.079 10.2133ZM114.133 22.8533H115.093V23.9733C115.093 27.92 112.586 30.4267 108.693 30.4267C107.626 30.4267 104.159 30.2133 104.159 27.0133C104.159 23.28 109.813 22.8533 114.133 22.8533Z" fill="#121112"/>
<path d="M131.786 14.7467C133.866 14.7467 133.919 13.2 133.919 12.8267C133.919 11.8667 133.333 10.9067 131.786 10.9067H127.519V6.53332C127.519 4.61332 126.239 3.91999 125.226 3.91999C124.853 3.91999 122.933 4.07999 122.933 6.53332V26.8C122.933 31.4933 125.226 33.9467 129.653 33.9467C130.773 33.9467 131.893 33.7333 132.639 33.4133C133.439 32.9867 133.919 32.2933 133.919 31.5467C133.919 30.4267 133.119 29.68 132.053 29.68C131.839 29.68 131.519 29.7333 131.253 29.84C130.879 29.8933 130.559 30 130.293 30C128.533 30 127.679 28.8267 127.679 26.3733V14.7467H131.786Z" fill="#121112"/>
<path d="M147.36 10.2133C140.266 10.2133 135.146 15.28 135.146 22.2133C135.146 25.5733 136.426 28.6667 138.666 30.8533C140.906 32.9867 144 34.2667 147.36 34.2667C154.346 34.2667 159.626 29.04 159.626 22.2133C159.626 15.28 154.4 10.2133 147.36 10.2133ZM147.36 30.2133C142.506 30.2133 139.893 26.1067 139.893 22.16C139.893 16.6667 143.786 14.1067 147.36 14.1067C150.933 14.1067 154.826 16.6133 154.826 22.16C154.72 27.7067 150.933 30.2133 147.36 30.2133Z" fill="#121112"/>
<path d="M175.307 34.9067C173.28 34.9067 171.52 34.3733 169.867 33.2533C168.213 32.1867 166.88 30.7467 165.973 28.88C165.067 27.12 164.533 24.9867 164.533 22.8V21.84C164.533 19.6 164.96 17.5733 165.867 15.76C166.773 13.8933 168 12.4 169.6 11.3867C171.147 10.32 172.96 9.84 174.827 9.84C177.6 9.84 179.893 10.8 181.6 12.8267C183.307 14.7467 184.213 17.36 184.213 20.5067V21.68C184.213 22.0533 183.893 22.3733 183.52 22.3733H167.093V22.9067C167.093 24.6133 167.467 26.2667 168.213 27.76C168.96 29.2533 169.92 30.3733 171.2 31.1733C172.48 31.9733 173.813 32.4533 175.307 32.4533C176.747 32.4533 177.973 32.24 178.933 31.76C179.893 31.3333 180.8 30.5867 181.547 29.6267C181.76 29.3067 182.24 29.2533 182.507 29.4667L183.307 30.0533C183.627 30.2667 183.68 30.7467 183.467 31.0133C181.653 33.5733 178.88 34.9067 175.307 34.9067ZM167.36 19.7067H181.813C181.76 18.4267 181.44 17.2533 180.907 16.1333C180.32 14.96 179.467 14 178.453 13.3067C177.387 12.6133 176.32 12.3467 174.933 12.3467C172.907 12.3467 171.2 13.0933 169.813 14.5867C168.48 15.92 167.68 17.7333 167.36 19.7067Z" fill="#84B840"/>
<path d="M188.427 34.48H187.307C186.933 34.48 186.613 34.16 186.613 33.7867V1.35999C186.613 0.986658 186.933 0.666656 187.307 0.666656H188.427C188.8 0.666656 189.12 0.986658 189.12 1.35999V33.8933C189.12 34.16 188.8 34.48 188.427 34.48Z" fill="#84B840"/>
<path d="M202.186 34.9067C200.16 34.9067 198.4 34.3733 196.746 33.2533C195.093 32.1867 193.76 30.7467 192.853 28.88C191.946 27.12 191.413 24.9867 191.413 22.8V21.84C191.413 19.6 191.84 17.5733 192.746 15.76C193.653 13.8933 194.88 12.4 196.48 11.3867C198.026 10.32 199.84 9.84 201.706 9.84C204.48 9.84 206.773 10.8 208.48 12.8267C210.186 14.7467 211.093 17.36 211.093 20.5067V21.68C211.093 22.0533 210.773 22.3733 210.4 22.3733H193.973V22.9067C193.973 24.6133 194.346 26.2667 195.093 27.76C195.84 29.2533 196.8 30.3733 198.08 31.1733C199.36 31.9733 200.693 32.4533 202.186 32.4533C203.626 32.4533 204.8 32.24 205.813 31.76C206.773 31.3333 207.68 30.5867 208.426 29.6267C208.64 29.3067 209.12 29.2533 209.386 29.4667L210.186 30.0533C210.506 30.2667 210.56 30.7467 210.346 31.0133C208.533 33.5733 205.76 34.9067 202.186 34.9067ZM194.133 19.7067H208.586C208.533 18.4267 208.213 17.2533 207.68 16.1333C207.093 14.96 206.24 14 205.226 13.3067C204.16 12.6133 202.986 12.3467 201.706 12.3467C199.68 12.3467 197.973 13.0933 196.586 14.5867C195.36 15.92 194.506 17.7333 194.133 19.7067Z" fill="#84B840"/>
<path d="M245.76 34.48H244.64C244.267 34.48 243.947 34.16 243.947 33.7867V18.96C243.947 16.6667 243.52 14.96 242.613 13.84C241.707 12.7733 240.373 12.2933 238.453 12.3467C235.84 12.4 233.92 13.4133 232.427 15.3867C231.627 16.5067 231.093 17.6267 230.987 18.64V33.84C230.987 34.2133 230.667 34.5333 230.293 34.5333H229.173C228.8 34.5333 228.48 34.2133 228.48 33.84V18.4267C228.48 16.3467 228.053 14.8 227.147 13.7333C226.347 12.7733 224.853 12.2933 222.88 12.2933C220.587 12.2933 218.773 13.2533 217.28 15.3333C216.373 16.5067 215.787 17.9467 215.52 19.3333V33.68C215.52 34.0533 215.2 34.3733 214.827 34.3733H213.653C213.28 34.3733 212.96 34.0533 212.96 33.68V10.7467C212.96 10.3733 213.28 10.0533 213.653 10.0533H214.827C215.2 10.0533 215.52 10.3733 215.52 10.7467V13.52C216.107 12.6133 216.853 11.9733 217.76 11.3867C219.307 10.2667 221.013 9.73332 222.987 9.73332C225.067 9.73332 226.773 10.16 228.107 11.1733C229.067 11.8667 229.813 12.8267 230.24 14.0533C230.933 12.9867 231.893 12.1333 233.013 11.3867C234.667 10.32 236.533 9.84 238.507 9.84C241.173 9.84 243.2 10.64 244.533 12.1333C245.867 13.6267 246.56 15.92 246.56 18.9067V33.84C246.453 34.16 246.08 34.48 245.76 34.48Z" fill="#84B840"/>
<path d="M258.986 34.9067C256.96 34.9067 255.2 34.3733 253.546 33.2533C251.893 32.1867 250.56 30.7467 249.653 28.88C248.746 27.12 248.213 24.9867 248.213 22.8V21.84C248.213 19.6 248.64 17.5733 249.546 15.76C250.453 13.9467 251.68 12.4 253.28 11.3867C254.826 10.32 256.64 9.84 258.506 9.84C261.28 9.84 263.573 10.8 265.28 12.8267C266.986 14.7467 267.893 17.36 267.893 20.5067V21.68C267.893 22.0533 267.573 22.3733 267.2 22.3733H250.773V22.9067C250.773 24.6133 251.146 26.2667 251.893 27.76C252.64 29.2533 253.6 30.3733 254.88 31.1733C256.16 31.9733 257.493 32.4533 258.986 32.4533C260.426 32.4533 261.653 32.24 262.613 31.76C263.573 31.3333 264.48 30.5867 265.226 29.6267C265.44 29.3067 265.92 29.2533 266.186 29.4667L266.986 30.0533C267.306 30.2667 267.36 30.7467 267.146 31.0133C265.333 33.5733 262.56 34.9067 258.986 34.9067ZM250.933 19.7067H265.386C265.333 18.4267 265.013 17.2533 264.48 16.1333C263.893 14.96 263.04 14 262.026 13.3067C260.96 12.6133 259.786 12.3467 258.506 12.3467C256.48 12.3467 254.773 13.0933 253.386 14.5867C252.16 15.92 251.306 17.7333 250.933 19.7067Z" fill="#84B840"/>
<path d="M287.2 34.48H286.08C285.707 34.48 285.387 34.16 285.387 33.7867V18.8533C285.387 16.6133 284.96 14.9067 284.053 13.8933C283.253 12.9333 281.813 12.4 279.893 12.4C278.133 12.4 276.533 12.9867 275.253 14.32C273.92 15.6 273.013 17.3067 272.587 19.28V33.8933C272.587 34.2667 272.267 34.5867 271.893 34.5867H270.773C270.4 34.5867 270.08 34.2667 270.08 33.8933V10.96C270.08 10.5867 270.4 10.2667 270.773 10.2667H271.893C272.267 10.2667 272.587 10.5867 272.587 10.96V13.6267C273.173 12.8267 273.92 12.08 274.72 11.4933C276.267 10.3733 278.08 9.84 279.947 9.84C282.613 9.84 284.64 10.64 285.973 12.1333C287.253 13.6267 287.893 15.92 288 18.9067V33.84C287.84 34.16 287.573 34.48 287.2 34.48Z" fill="#84B840"/>
<path d="M298.4 34.9067C296.533 34.9067 295.146 34.3733 294.293 33.2533C293.493 32.1867 293.013 30.64 293.013 28.5067V12.8267H289.493C289.12 12.8267 288.8 12.5067 288.8 12.1333V11.0133C288.8 10.64 289.12 10.32 289.493 10.32H293.013V4.82666C293.013 4.45332 293.333 4.13332 293.706 4.13332H294.88C295.253 4.13332 295.573 4.45332 295.573 4.82666V10.32H300.053C300.426 10.32 300.746 10.64 300.746 11.0133V12.1333C300.746 12.5067 300.426 12.8267 300.053 12.8267H295.573V28.4C295.573 29.8933 295.786 30.9067 296.266 31.6C296.853 32.5067 298.186 32.56 300.533 32.2933C300.906 32.24 301.28 32.5067 301.333 32.88L301.546 33.9467C301.6 34.32 301.386 34.64 301.12 34.7467C300.533 34.8533 299.68 34.9067 298.4 34.9067Z" fill="#84B840"/>
<path d="M311.36 34.9067C308.693 34.9067 306.453 34.2133 304.747 33.04C302.987 31.76 302.08 30.0533 302.08 27.9733C302.08 27.6 302.4 27.28 302.773 27.28H303.893C304.267 27.28 304.587 27.6 304.587 27.9733C304.64 29.4133 305.28 30.4267 306.347 31.1733C307.52 31.9733 309.173 32.3467 311.253 32.3467C313.12 32.3467 314.667 31.92 315.787 31.0667C316.907 30.2667 317.44 29.3067 317.44 28.1867C317.44 25.7333 315.307 24.1867 310.88 23.2267C307.893 22.5333 305.813 21.7867 304.64 20.7733C303.36 19.6533 302.72 18.16 302.72 16.2933C302.72 14.3733 303.52 12.7733 305.12 11.6C306.667 10.4267 308.693 9.84 311.093 9.84C313.707 9.84 315.84 10.5333 317.493 11.76C319.147 13.0933 320 14.9067 320 17.04C320 17.4133 319.68 17.7333 319.307 17.7333H318.133C317.76 17.7333 317.44 17.4133 317.44 17.04C317.44 15.7067 316.907 14.64 315.733 13.7867C314.56 12.88 312.96 12.3467 311.093 12.3467C309.227 12.3467 307.84 12.72 306.773 13.52C305.813 14.2667 305.28 15.1733 305.28 16.2933C305.28 17.2 305.44 17.84 305.813 18.32C306.187 18.8533 306.773 19.28 307.68 19.6533C308.64 20.08 309.973 20.56 311.84 20.9867C313.76 21.4133 315.36 21.9467 316.533 22.64C317.707 23.3333 318.613 24.08 319.2 25.04C319.787 25.9467 320 27.0667 320 28.4C320 30.4267 319.2 32.1333 317.493 33.3067C316 34.32 313.92 34.9067 311.36 34.9067Z" fill="#84B840"/>
</g>
<defs>
<clipPath id="clip0_83_112">
<rect width="320" height="34.6667" fill="white" transform="translate(0 0.666656)"/>
</clipPath>
</defs>
</svg>
