<svg width="24" height="24" viewBox="0 0 24 24" fill="none" xmlns="http://www.w3.org/2000/svg">
<rect x="1" y="1" width="22" height="22" rx="3" stroke="#132A3B" stroke-opacity="0.8" stroke-width="2"/>
<path d="M19 8C19 8.25587 18.9023 8.51187 18.707 8.70687L10.707 16.7069C10.5125 16.9031 10.2562 17 10 17C9.74375 17 9.48813 16.9023 9.29313 16.707L5.29313 12.707C5.09781 12.5125 5 12.2562 5 12C5 11.4288 5.46719 11 6 11C6.25587 11 6.51188 11.0977 6.70688 11.293L10 14.5875L17.2937 7.29375C17.4875 7.09781 17.7437 7 18 7C18.5344 7 19 7.42813 19 8Z" fill="#132A3B" fill-opacity="0.8"/>
</svg>
